<?xml version="1.0" encoding="utf-8"?>
<!-- Generator: Adobe Illustrator 23.0.6, SVG Export Plug-In . SVG Version: 6.00 Build 0)  -->
<svg version="1.1" baseProfile="tiny" id="Layer_1" xmlns="http://www.w3.org/2000/svg" xmlns:xlink="http://www.w3.org/1999/xlink"
	 x="0px" y="0px" viewBox="0 0 2000 2000" xml:space="preserve">
<g>
	<path fill="#FE0590" d="M0,1303.1c167.3-83.3,345.4-111.1,530.7-108.7c224.9,3,447.4,32.1,670.4,56.4c148.2,16.1,297,30,446.2,11.9
		c121.1-14.7,237-45,336.2-121.2c3.1-2.4,7.1-3.6,16.6-1.6c-6.3,12.2-11.1,25.6-19.1,36.6c-45.4,62.1-107.5,102.4-177,132.4
		c-120.9,52.2-249,70.6-378.5,62.7c-151.9-9.3-303.6-25.6-454.4-46.1c-232-31.6-464-59.6-698.4-45.9
		c-82.3,4.8-163.9,21.9-245.9,33.1c-8.7,1.2-17.7,0.4-26.6,0.5C0,1309.8,0,1306.5,0,1303.1z"/>
	<path fill="#FE038F" d="M0,945.7c1.6-1.7,4.2-3.1,4.8-5.1C28.7,857,91.6,823.6,171.1,821c52.7-1.7,105.9,8.5,159.1,13.4
		c7.4-61.5-38.7-112.7-113-119.9c-55.8-5.3-108,7.8-159.7,30.7c-2.9-11.3-5.4-20.9-7.7-30.5c-12.3-53.4-12.2-53.4,40-73.5
		c64.4-24.8,130-29.5,197.2-13c89.1,21.9,147.8,82,152.6,173.5c5.6,106.9,1.3,214.3,1.3,324.9c-28.1,0-56.3,0.5-84.4-0.5
		c-4.7-0.2-10.8-6.7-13.2-11.7c-4.5-9.6-6.9-20.3-10.8-32.8c-56.7,48-121.6,60.4-191.1,51.8c-67.5-8.3-114.9-43-136.1-109.6
		c-0.9-2.8-3.5-5.1-5.3-7.6C0,992.7,0,969.2,0,945.7z M226.4,893.3c-23.3,3.1-39.3,4.1-54.6,7.6c-44.7,10.1-71,39.3-70,76.3
		c1,36.8,29,66.4,74.1,72.3c71.9,9.5,154.8-13.3,156.5-113c0.2-13.9-3.3-22.3-17.4-25.1C283.3,905,251.6,898.4,226.4,893.3z"/>
	<path fill="#FE038F" d="M1998.3,878.8c0,130.8-69.9,224.4-187.7,251.2c-156.2,35.6-299.7-78.9-301.3-239
		c-0.7-69.3,13-133.4,58.4-187.5c66.2-79,176.4-106,276.8-69.2c91.8,33.7,153.4,124.6,153.8,226.7
		C1998.3,867,1998.3,872.9,1998.3,878.8z M1896,874.5c-7.6-27.1-12.3-56.4-24-82.6c-22-49.4-62.9-75.9-117-76.4
		c-53.3-0.5-93,25.9-116.7,73.2c-28.7,57.2-29.2,116.3-1.6,173.9c23.7,49.5,64.1,76.8,119.9,75.8c58-1,98.1-31.3,119.5-83.9
		C1886.1,930.2,1889.2,903.1,1896,874.5z"/>
	<path fill="#FE038F" d="M515.8,1004.7c41.1,11.4,80.8,25,121.5,32.7c24.7,4.7,51.5,2.8,76.7-0.8c22.5-3.2,36.9-20.2,39.5-43.3
		c2.6-22.7-9.7-39.4-29.2-48.4c-31.1-14.4-63.7-25.4-94.9-39.7c-25.7-11.8-53.1-22.6-74.7-40.1c-73.3-59.4-63.9-168.4,17.5-216.7
		c56.4-33.4,117.6-35.3,180.3-23.9c89.4,16.2,91.6,20,65.2,106.8c-0.2,0.7-1.1,1.2,0.1-0.1c-40.8-6.3-80.1-13.7-119.7-17.7
		c-14.1-1.4-30.7,2.4-43.3,9.1c-31.4,16.5-32.6,53.8-2.9,73.3c14.6,9.5,31.2,16.2,47.3,23c27.7,11.8,56.3,21.8,83.7,34.2
		c57.2,25.9,90,68.9,87.1,133.8c-2.9,63.7-36.9,106.9-94.8,129.9c-92.5,36.8-180.9,17.9-266.1-25.5c-5.2-2.7-10.3-13.3-9.3-19.2
		C504,1049.2,510.4,1026.7,515.8,1004.7z"/>
	<path fill="#FE018E" d="M955.3,711.1c-22.4-3.5-42-6.6-63.1-10c0-23.6,0-46.6,0-72c19.7,0,39.4,0,62.3,0c0-37.7,0-73.2,0-109.9
		c38.8,0,74.4,0,112.4,0c0,35.3,0,70.1,0,107.9c35.9,0,69.8,0,105.1,0c0,26,0,49,0,74.2c-33.9,3.1-67.7,6.2-104.2,9.5
		c0,23,0,44.6,0,66.2c0,61.2-0.2,122.4,0.1,183.6c0.2,58.7,17.2,74.8,75.2,72.7c14.1-0.5,28.1-0.1,45.1-0.1
		c0,23.9,0.7,48.8-0.6,73.6c-0.3,5.4-6.6,13.4-11.8,15.1c-42.8,14.1-86.3,19.7-130.9,7.9c-54.2-14.4-87.7-56.3-88.7-116.6
		c-1.5-91.4-0.7-182.8-0.9-274.2C955.3,730,955.3,721.1,955.3,711.1z"/>
	<path fill="#FE0690" d="M1257.2,629.2c35.7,0,69.7,0,105.9,0c0,24,0,47,0,78.6c37.2-60.4,86.5-86.2,150.4-89.5
		c0,34.4,0,67.5,0,102.6c-4.4,1-9.7,2.7-15.2,3.3c-69.3,7.5-114.5,47.8-123.3,117.7c-5.8,46.3-4.6,93.5-5.5,140.3
		c-0.8,45.2-0.2,90.5-0.3,135.7c0,1.6-0.6,3.3-1.4,6.9c-35.9,0-72.3,0-110.6,0C1257.2,960.7,1257.2,796.2,1257.2,629.2z"/>
</g>
</svg>
