<?xml version="1.0" encoding="utf-8"?>
<!-- Generator: Adobe Illustrator 23.0.6, SVG Export Plug-In . SVG Version: 6.00 Build 0)  -->
<svg version="1.1" baseProfile="tiny" id="Layer_1" xmlns="http://www.w3.org/2000/svg" xmlns:xlink="http://www.w3.org/1999/xlink"
	 x="0px" y="0px" viewBox="0 0 2000 2000" xml:space="preserve">
<g>
	<path fill="#1D8BCB" d="M237.3,1333.9c-37.3-46.3-75.2-92.2-111.8-139.1c-33-42.3-64.4-85.8-96.6-128.7
		C-8.6,1016-9.9,986.2,27,935.5c57.6-79.2,116-157.8,175.2-235.8c12.1-16,25.3-39.5,49.5-32.2c23.2,7,24.9,33,26.1,53.3
		c2.4,39.6,1.4,79.4,1.3,119.2c0,4.9-2.6,10.4-5.6,14.4c-27.7,37.5-55.9,74.6-83.6,112c-18.7,25.3-18.7,40.8-0.3,65.6
		c27.3,36.9,54.9,73.5,82.2,110.3c3.1,4.2,7.3,9.2,7.2,13.8c-0.9,45.8-0.8,91.8-5,137.4c-1.3,14-14.8,26.9-22.7,40.3
		C246.6,1333.9,242,1333.9,237.3,1333.9z"/>
	<path fill="#222F5E" d="M358.9,1333.9c-7.9-18.6-20.8-36.8-22.6-56c-3.7-38.6-2-77.7-1.1-116.6c0.2-8.4,5.1-17.7,10.2-24.8
		c25.5-35.1,52.2-69.3,77.6-104.5c19.6-27.1,19-41.1-0.3-67.2c-25.4-34.2-51.8-67.7-76.4-102.6c-6.6-9.3-10.7-22.2-11.1-33.7
		c-1.3-35.7-1.1-71.6,0.3-107.4c0.8-20.9,2.1-46.3,24.9-53.4c23.5-7.4,36.5,14.6,49,31.3C469,779.4,529.2,859.2,588,940.1
		c33.3,45.7,32.3,75-1.4,120.6c-60.3,81.7-120.8,163.2-181.9,244.2c-8.5,11.2-21.1,19.4-31.8,29
		C368.2,1333.9,363.6,1333.9,358.9,1333.9z"/>
	<path fill="#24305F" d="M1752.8,1034.2c-35.2,60-68.1,115-99.7,170.8c-9.6,17-21,23.8-40.8,22.6c-29.9-1.8-60.1-0.5-94.4-0.5
		c32.7-49.3,62.9-95,93.4-140.6c20.2-30.3,40.2-60.8,61.6-90.2c9.9-13.7,8.4-23.6-1-36.9c-46.5-65.8-92.1-132.3-138-198.6
		c-1.7-2.4-3-5-6.7-11.4c43,0,83-0.6,123,0.7c5.2,0.2,11.3,9.1,15,15.2c26.9,43.5,53.3,87.3,79.9,131c3.9,6.5,8.3,12.7,14.5,22.3
		c22.3-37.9,42.9-73.1,63.7-108.3c11.8-20,19.3-47.5,36.8-57.5c17.7-10.2,45.4-3.1,68.7-3.4c16.8-0.2,33.5,0,54.7,0
		c-38.5,56.3-74.2,108.5-109.9,160.7c-11.8,17.3-22.9,35.1-35.5,51.8c-7.9,10.5-7.2,17.8,0.3,28.5
		c50.5,72.5,100.2,145.6,150.1,218.5c3.4,5,6.4,10.2,11.4,18.3c-42,0-80.6,0.7-119.2-0.7c-6.2-0.2-14-8.3-17.9-14.7
		c-31-50.1-61.1-100.7-91.7-151C1766.5,1053,1760.9,1045.8,1752.8,1034.2z"/>
	<path fill="#202D5D" d="M1239.5,1039.4c0,63.8,0,124.3,0,186.2c-35,0-68.1,0-102.8,0c0-156.9,0-314.6,0-472.7
		c0.8-0.7,2-2.6,3.1-2.6c76.9,1.1,154-0.4,230.7,4.6c51.3,3.4,94.6,28.2,113.7,79.9c20,54.2,16.7,108-19.5,154.8
		c-29.4,38-73.8,47.1-119,49.4C1311.6,1040.8,1277.3,1039.4,1239.5,1039.4z M1241.2,835.6c0,42.3,0,79.2,0,119.2
		c33.4-1.5,65.1-1.4,96.5-4.9c30.2-3.4,48.1-24.4,49.6-52.6c1.5-27.7-14.5-50.2-45.8-55.1C1308.9,837.2,1275.4,837.6,1241.2,835.6z"
		/>
	<path fill="#1F2C5C" d="M840.2,1039.5c0,64.4,0,124.9,0,186.5c-34.5,0-67.5,0-101.5,0c0-158.5,0-316.2,0-475.2
		c105.8,0,210.5,0,316.5,0c0,30.1,0,60,0,92.2c-70.5,0-140.9,0-213,0c0,34.5,0,66.8,0,101.8c64.7,0,130.4,0,197.7,0
		c0,32.5,0,62.4,0,94.8C974.8,1039.5,909.1,1039.5,840.2,1039.5z"/>
</g>
</svg>
