<?xml version="1.0" encoding="utf-8"?>
<!-- Generator: Adobe Illustrator 23.0.6, SVG Export Plug-In . SVG Version: 6.00 Build 0)  -->
<svg version="1.1" baseProfile="tiny" id="Layer_1" xmlns="http://www.w3.org/2000/svg" xmlns:xlink="http://www.w3.org/1999/xlink"
	 x="0px" y="0px" viewBox="0 0 2000 2000" xml:space="preserve">
<g>
	<path fill="#FE060D" d="M1410.6,733.1c22,0,43.2-1.2,64.1,0.7c6.6,0.6,14.4,7.9,18.6,14.2c50.8,77.3,101,155.1,151.5,232.6
		c3.5,5.4,7.7,10.3,17.6,14.5c0-42.5,0-85.1,0-127.6c0-43.4,0-86.8,0-132.3c24.8,0,48.8,0,74,0c0,134.9,0,269.2,0,406.8
		c-21.7,0-42.8,1.2-63.7-0.7c-6.6-0.6-14-8.6-18.2-15.1c-52.4-80.4-104.3-161.2-156.5-241.8c-1.7-2.6-4.5-4.3-11-10.3
		c0,91.2,0,177.8,0,266.1c-27.5,0-51.6,0-76.5,0C1410.6,1004.5,1410.6,870.2,1410.6,733.1z"/>
	<path fill="#FE070E" d="M1178.8,1151.3c-121.4,0-214.8-93.5-214.5-214.7c0.3-118.2,96.1-215,213.7-215.7
		c116-0.7,210.8,97.1,212.3,216.5C1391.9,1062,1287.7,1156.5,1178.8,1151.3z M1314.6,941.5c1.9-79.5-57.9-144.6-134.6-146.6
		c-75.8-2-137.5,59.3-139.7,138.7c-2.2,80.8,55.3,143,134.6,145.6C1251.3,1081.6,1312.7,1021,1314.6,941.5z"/>
	<path fill="#FE080F" d="M1780.4,734.6c73.1,0,145.9,0,219.5,0c0,23.6,0,46.1,0,71.3c-48.4,0-95.5,0-144.5,0c0,26.7,0,50.8,0,77.6
		c48.1,0,95.3,0,144,0c0,24.4,0,46.2,0,71.6c-47.2,0-95,0-144.3,0c0,38.9,0,74.2,0,113.1c48.4,0,96.3,0,144.9,0
		c0,25.5,0,47.4,0,71.5c-72.6,0-145.1,0-219.6,0C1780.4,1005.4,1780.4,870.7,1780.4,734.6z"/>
	<path fill="#2F2B2C" d="M799.8,886.3c0-54.8,0-109.7,0-164.1c35.6-4.5,35.4-4.5,35.4,26.9c0,125,0,250,0.1,375.1
		c0,4.9,0,9.8,0,16.3c-12.3,0-22.8,0-35.6,0c0-14.6,0-28.7,0-51c-53.1,55-111.3,74.4-178.5,51.3c-33.8-11.6-59.6-35.2-78.5-65.6
		c-39.9-64.4-27.7-151.5,28.4-202.6c33-30.2,72.3-43.3,116.8-40.5c43.7,2.7,77.6,24.7,105.7,57.6
		C795.6,888.5,797.7,887.4,799.8,886.3z M800.9,993.1c0.1-72.1-51.4-125.6-121.3-125.9c-67.1-0.3-122.8,54.9-123.8,122.6
		c-1,67.1,54.9,125.3,120.9,125.7C748.3,1116.1,800.8,1064.3,800.9,993.1z"/>
	<path fill="#2F2A2B" d="M469.7,992.7c-90.9,0-179.9,0-268.6,0c-9.5,49.5,31.4,110.4,81.4,119.8c53,9.9,101-1.2,132.6-48.3
		c15.9-23.6,27.5-17.2,42.9-3.3c-33.1,74.6-117.5,108-200.1,80.2c-68.9-23.2-112.7-109.9-95.1-188c17.9-79,88.7-129.1,170.7-120.8
		C413,840.3,470.1,906.2,469.7,992.7z M204.4,959.7c75.8,0,149.6,0,223.9,0c-10.5-60.7-59.4-96-124.7-92.4
		C253.1,870.1,207.3,912.4,204.4,959.7z"/>
	<path fill="#363132" d="M0,842c35.6-5.3,35.6-5.3,40.1,37.3c31.1-30.8,60.4-64.7,110.1-37.7c-8,17.7-13.7,30.8-38.6,27.1
		c-26.3-3.9-45.3,15.7-54.7,38.2c-8.9,21.4-15.1,45.4-16.1,68.5c-2.3,54.2-0.7,108.6-0.7,164.8c-15.2,0-27.2,0-40.1,0
		C0,1040.1,0,941.7,0,842z"/>
</g>
</svg>
