<?xml version="1.0" encoding="utf-8"?>
<!-- Generator: Adobe Illustrator 23.0.6, SVG Export Plug-In . SVG Version: 6.00 Build 0)  -->
<svg version="1.1" baseProfile="tiny" id="Layer_1" xmlns="http://www.w3.org/2000/svg" xmlns:xlink="http://www.w3.org/1999/xlink"
	 x="0px" y="0px" viewBox="0 0 2000 2000" xml:space="preserve">
<g>
	<path fill="#FE9106" d="M1994.1,1241.8c-4.7,8.4-9.3,16.8-14,25.2c-17.1,30.3-42.1,49.2-77.7,49.4c-107.9,0.5-215.7,0.2-323.6,0.1
		c-4,0-7.9-0.8-14.1-1.5c0-20.7,0-40.4,0-60.1c0-17.8,13.4-13.6,23.2-13.6c83.8-0.2,167.6,0.1,251.4-0.4c11.2-0.1,26.4-0.2,32.5-6.9
		c8.1-9,13.3-24.9,12.2-37.1c-1.7-17.9-17.5-24.9-34.8-25.1c-34.8-0.3-69.7-0.1-104.5-0.1c-29,0-58.1,0.6-87.1-0.2
		c-52.6-1.4-88.9-41.3-92.5-100.8c-3.1-51.7,30.5-98.4,79.1-103.8c38.5-4.3,77.7-3.8,116.6-4.1c69.5-0.6,139-0.2,210.2-0.2
		c0,23.4,0,44.5,0,68.2c-8.3,0.4-16.2,1.2-24.1,1.2c-73.8,0.1-147.7,0-221.5,0.1c-32.8,0-49.9,12.5-49.3,35.4
		c0.6,21.5,18.2,33.8,48.6,34c54.8,0.2,109.5,0.6,164.3,0.7c51.1,0.2,83.6,23.7,100,72.6c0.9,2.7,3.5,4.8,5.3,7.1
		C1994.1,1202,1994.1,1221.9,1994.1,1241.8z"/>
	<path fill="#FE9004" d="M747.8,1102.3c0,24.4,0,45.6,0,69.4c-37.6,0-73.9-0.4-110.1,0.2c-12.2,0.2-26.5,0-36.1,6
		c-10.3,6.5-23.5,21.1-22.1,30.2c1.7,11.3,15.9,27.3,26.8,29.2c27.4,4.9,56,3.4,84.2,3.8c28.2,0.4,56.5-0.7,84.6,0.4
		c16.8,0.7,21.2-5.8,20.8-21.7c-0.9-42.3,0-84.6-0.4-126.9c-0.3-38.2-22.1-60.4-60.1-60.6c-70.5-0.4-141.1-0.9-211.6,0.4
		c-21.6,0.4-30.8-5-27.9-27.5c1.6-12.9,0.3-26.1,0.3-39.9c6.5-1.1,10.4-2.4,14.3-2.4c100.3,1.3,200.6,1.3,300.9,4.8
		c62.1,2.2,95.5,37.5,96.8,99.7c1.7,82,0.4,164,0.4,249.3c-8.8,0-17.6,0-26.3,0c-104.5,0-209.1,0-313.6,0
		c-72,0-120.4-63.2-99.3-132.9c6.7-22.1,19-43.9,33.7-61.8c8.8-10.7,27.1-18.3,41.4-18.7C611.3,1101.3,678.4,1102.3,747.8,1102.3z"
		/>
	<path fill="#FE9105" d="M6.8,1316.6c0-25.9,0-48.8,0-75.4c9.6,0,18.3,0,27.1,0c83,0,166,0.1,249-0.1c18.7,0,37.4-0.8,42.2-24.9
		c5.5-27.4-8.3-44.2-38.1-44.4c-58.1-0.4-116.3-2.5-174.3,0.5c-69.6,3.5-105.1-50.1-106.8-99.1c-2.2-63.7,35-108.3,98.3-109.8
		c102-2.5,204.1-0.7,308.3-0.7c0,22.7,0,44.5,0,69.4c-8.9,0-17.7,0-26.5,0c-73,0-146.1-0.1-219.1,0c-35.7,0-47.9,9.2-47.5,35.3
		c0.4,24.7,13,33.9,46.7,34.1c56.4,0.2,112.9,0.4,169.3,0.8c57.7,0.4,99.2,45.4,99.6,107.7c0.4,62.3-40.7,106.4-99.7,106.5
		C226.7,1316.7,118,1316.6,6.8,1316.6z"/>
	<path fill="#FE9003" d="M1127.5,962.9c97.4,0,192.8-1.7,288,0.6c58.8,1.5,104.1,53.5,101.7,109.6c-3.4,80.1-0.9,160.5-0.9,242.1
		c-33.8,0-65.8,0-101.2,0c0-25.3,0-50.7,0-76c0.1-43.1,0.7-86.3,0.1-129.4c-0.7-49.1-28.5-76.6-77.4-77.6
		c-28.2-0.6-56.4,0.8-84.6-0.4c-17.1-0.7-23.3,4.4-22.8,22.3c1.2,43.9,0.4,87.9,0.4,131.9c0,42.2,0,84.4,0,128.6
		c-36.3,0-68.9,0-103.2,0C1127.5,1198.7,1127.5,1082.3,1127.5,962.9z"/>
	<path fill="#FE9003" d="M1077.5,1315.3c-38.4,0-75.5,0-115,0c0-25,0-48.9,0-72.7c0-85.5,0.5-171-0.4-256.5
		c-0.2-18.7,5.2-24.7,23.9-23.8c29.7,1.5,59.6,0.4,91.6,0.4C1077.5,1080.7,1077.5,1197.2,1077.5,1315.3z"/>
	<path fill="#E6E7E8" d="M1581.3,584.1c5,1.8,9.9,3.6,14.9,5.5c9.9,9.5,19.8,18.9,29.7,28.4c-5.9,6.9-11.3,14.2-17.6,20.5
		c-65.4,65.6-131,130.9-196.1,196.6c-6.7,6.7-10.9,15.8-16.2,23.8c-35.8-18-63.3-64.6-58.5-104c9.7-79.3,53.9-132,126.8-163.6
		C1503.1,574.5,1542,582.3,1581.3,584.1z"/>
	<path fill="#BDBEC1" d="M1401.4,883.9c-24.3-0.5-49.3,2.6-72.7-2.2c-38.3-7.9-76-20-113.1-32.6c-8-2.7-17.6-15.2-17.6-23.2
		c0-7.6,10.2-17.6,18.3-22.3c34-19.9,72-20.9,110.1-20.1c7.1,31.1,21.3,58.1,46.4,78.5C1382.2,869.6,1391.9,876.6,1401.4,883.9z"/>
	<path fill="#AEB0B3" d="M1401.4,883.9c-9.5-7.3-19.3-14.3-28.6-21.8c-25.1-20.4-39.3-47.4-46.4-78.5
		c-3.4-87.7,36.2-151.9,111.7-192.4c45.1-24.2,94-34.9,143.1-6.9c-39.3-1.8-78.2-9.6-117.1,7.2c-73,31.6-117.2,84.2-126.8,163.6
		c-4.8,39.5,22.6,86,58.5,104c5.2,2.9,10.3,5.8,15.5,8.7c9.6,2.4,19.1,4.7,28.7,7.1c0.2,1.2,0.5,2.4,0.9,3.6
		c-0.1,2.4-0.1,4.8-0.2,7.2C1427.6,885,1414.5,884.5,1401.4,883.9z"/>
	<path fill="#B2B4B7" d="M842.8,877.7c5.4-7.7,14.4-14.9,15.6-23.1c10.5-77,99.9-123.2,149.2-100.1c0,3.1,0,6.1,0,9.2
		c-5-0.1-10-0.2-14.9-0.3c-11.6,0.1-23.2,0.2-34.8,0.3c-10.6,4.4-21.8,7.9-31.8,13.3c-44.7,24.3-63.6,75.8-43.1,116.2
		c9.9,8.4,19.7,16.8,29.6,25.3c11.5,1.9,23,3.9,34.6,5.8c13.7,0,27.4,0.1,41,0.1c16.1-3,32.2-6,48.4-9c0.3,2.4,0.6,4.8,0.9,7.2
		c-21,5.1-41.8,12.7-63.1,14.8c-23.5,2.4-47.5-0.2-71.2-0.6C882.9,917.1,862.8,897.4,842.8,877.7z"/>
	<path fill="#BEBFC2" d="M842.8,877.7c20.1,19.7,40.2,39.4,60.3,59.1c-44.8,2.1-88-1.7-127.5-33.1
		C795.8,881.7,818.1,876.8,842.8,877.7z"/>
	<path fill="#B6B8BA" d="M1625.8,618c-9.9-9.5-19.8-18.9-29.7-28.4c6.3,1.5,13.2,1.7,18.8,4.6c57.2,29.3,100.4,115.6,89.8,179.6
		c-0.9,5.3-4.7,10.2-7.1,15.3c-2.6-0.3-5.2-0.5-7.8-0.8c14.3-54.6-0.9-101.2-38.4-141.8c-3.3-4.5-6.6-9-10-13.4
		C1636.2,628,1631,623,1625.8,618z"/>
	<path fill="#BABCBE" d="M1440.7,885.6c0.1-2.4,0.1-4.8,0.2-7.2c46.5-1.9,93-3.8,139.5-5.7c2.2,2.3,4.5,4.5,6.7,6.8
		c-12.6,3.8-25.2,10.7-37.8,10.7C1513.1,890.1,1476.9,887.3,1440.7,885.6z"/>
	<path fill="#B1B3B6" d="M1587.1,879.5c-2.2-2.3-4.5-4.5-6.7-6.8c45.8-16.1,85.9-39.4,109.4-84.4c2.6,0.3,5.2,0.5,7.8,0.8
		C1678.1,840.4,1637,865.3,1587.1,879.5z"/>
	<path fill="#B1B3B6" d="M1007.5,763.6c0-3.1,0-6.1,0-9.2c38,7.1,70,39.6,76.8,78.1c-2.4,0.3-4.9,0.5-7.3,0.8
		c-8-12.1-16-24.1-24.1-36.2c-10.1-8.2-20.2-16.4-30.3-24.6C1017.5,769.6,1012.5,766.6,1007.5,763.6z"/>
	<path fill="#B9BBBE" d="M1077,833.3c2.4-0.3,4.9-0.5,7.3-0.8c17.4,22.1,7.1,42.9-6.6,60c-10.2,12.6-26.7,20.2-40.3,30
		c-0.3-2.4-0.6-4.8-0.9-7.2C1067.2,896.6,1084.7,871.2,1077,833.3z"/>
	<path fill="#EEEEEF" d="M1625.8,618c5.2,5,10.4,10,15.6,15c-12.4,13.2-24.6,26.5-37.2,39.4c-64.2,65.2-128.6,130.2-192.9,195.3
		c-5.2-2.9-10.3-5.8-15.5-8.7c5.3-8,9.6-17.1,16.2-23.8c65.2-65.8,130.8-131.1,196.1-196.6C1614.5,632.1,1620,624.9,1625.8,618z"/>
	<path fill="#EBECED" d="M1022.6,772.5c10.1,8.2,20.2,16.4,30.3,24.6c-17.6,32.1-35.4,64-52.5,96.3c-5.2,9.7-8.3,20.5-12.4,30.8
		c-13.7,0-27.4-0.1-41-0.1c7-14.7,13.8-29.6,21.1-44.1C986.1,844.2,1004.4,808.4,1022.6,772.5z"/>
	<path fill="#E3E4E5" d="M1022.6,772.5c-18.2,35.9-36.5,71.7-54.5,107.6c-7.3,14.6-14.1,29.4-21.1,44.1c-11.5-1.9-23-3.9-34.6-5.8
		c19.2-33.6,39.1-66.8,57.4-100.9c9.2-17.2,15.3-36,22.8-54.1c5,0.1,10,0.2,14.9,0.3C1012.5,766.6,1017.5,769.6,1022.6,772.5z"/>
	<path fill="#DBDCDD" d="M992.5,763.4c-7.5,18.1-13.6,36.9-22.8,54.1c-18.2,34.1-38.1,67.3-57.4,100.9c-9.9-8.4-19.8-16.8-29.6-25.3
		c34.5-37.7,59.6-80.8,74.9-129.5C969.3,763.5,980.9,763.5,992.5,763.4z"/>
	<path fill="#D3D4D6" d="M957.7,763.6c-15.3,48.8-40.5,91.8-74.9,129.5c-20.4-40.4-1.6-91.9,43.1-116.2
		C936,771.5,947.1,768,957.7,763.6z"/>
</g>
</svg>
