<?xml version="1.0" encoding="utf-8"?>
<!-- Generator: Adobe Illustrator 23.0.6, SVG Export Plug-In . SVG Version: 6.00 Build 0)  -->
<svg version="1.1" baseProfile="tiny" id="Layer_1" xmlns="http://www.w3.org/2000/svg" xmlns:xlink="http://www.w3.org/1999/xlink"
	 x="0px" y="0px" viewBox="0 0 2000 2000" xml:space="preserve">
<g>
	<path fill="#4EC12D" d="M279.8,693.1C219.4,838.9,139,973.7,52.5,1105.1c-1.1,1.7-4.1,2.3-12.3,6.8c-4.9-35-12.2-67.1-13.3-99.5
		c-3.4-99.8,31.2-190.1,80.3-273.9c38.4-65.6,85.4-126.3,129.5-188.6c46.9-66.3,73.4-140.9,91.4-219.1c2-8.7,3.9-17.5,5.8-26.2
		c2.8-0.7,5.6-1.4,8.4-2.2c24.5,65.8,52.4,130.5,72.7,197.5c44.5,146.9,3.2,278.2-80.1,400.8c-56.4,83-128.7,149.5-207.4,210.5
		c-46.9,36.4-85.8,80.7-111.6,135.2c-2.5,5.3-10.5,8-15.9,11.8c0-5,0-10,0-15c43.3-103.1,115.2-188.6,174.1-282
		c48-76.1,83.6-158.1,113.7-242.6c2.2-6.2,2.5-13,3.7-19.5c15.1-23.9,19.5-50.3,22.4-77.1c-2.4-0.7-4.8-1.4-7.2-2.1
		C297.7,644.3,288.8,668.7,279.8,693.1z"/>
	<path fill="#F50E1F" d="M1884.8,901.9c0-39.6,0-79.2,0-120.9c33,0,65,0.1,97-0.1c6.1,0,12.1-1.7,18.2-2.6c0,1.7,0,3.3,0,5
		c-4.1,1.5-8.2,3-12.3,4.5C1933.7,808.2,1901.9,848.3,1884.8,901.9z"/>
	<path fill="#635FAF" d="M1987.7,787.9c4.1-1.5,8.2-3,12.3-4.5c0,108.3,0,216.7,0,325l-1.9,1.5c0,0-2.4-0.2-2.4-0.2
		c-0.3-98.2-0.4-196.5-1.1-294.7C1994.5,805.9,1990.1,796.9,1987.7,787.9z"/>
	<path fill="#323099" d="M484.9,604c38.7,54.3,78.2,107.7,115.5,162.6c56.3,82.9,91.9,173.8,84.5,275.4
		c-13.3,181.4-169,314.5-350.1,299.2c-71.8-6-136.2-34.9-188.8-85.8c-5-4.9-7.8-19-4.5-24.4c27.8-45.2,54.5-91.5,86.9-133.2
		c47.4-60.9,100.1-117.8,149.2-177.4c74.4-90.3,106.5-195.4,105.7-311.5C483.4,606.8,484.8,604.5,484.9,604z"/>
	<path fill="#35349B" d="M1226.2,785.3c-7.5,54.2-44.1,93-94.9,96.6c-62.1,4.3-124.4,4.6-186.7,6.7c-27.5,0.9-43.1,21.1-34.2,44.2
		c6.8,17.5,21.2,21.1,38.4,21.4c61.5,1.1,123.2,0.6,184.5,5.1c54.5,4,94.5,52.4,94.1,107.5c-0.2,25.7,1.9,52.2-3.5,77
		c-9.9,45.9-49.9,78.4-98.5,82.3c-45.5,3.6-91.2,4.9-136.8,5.7c-51.6,0.9-103.2,0.4-154.9,0.2c-24.2-0.1-29.4-8.3-20.5-30.6
		c21-52.2,63.4-72.9,115.8-75.1c51.5-2.2,103.2-0.7,154.8-0.7c27.6,0,43.6-12.2,43.6-33.2c-0.1-20.7-16.9-34.1-43.2-34.2
		c-49.1-0.1-98.3,1.3-147.4-0.5c-53.5-1.9-104.3-16.5-120.8-73.8c-16-55.2-21.6-113.3,20.7-162.8c22.5-26.4,54.4-37.2,86.6-38
		c96.5-2.2,193.2-0.9,289.7-0.8C1216.8,782.3,1220.7,784,1226.2,785.3z"/>
	<path fill="#34339A" d="M1671.4,1231.9c-34.8,0-66.4,1.3-97.6-1c-7.5-0.6-17.3-12.1-20.6-20.6c-19-50.3-18.5-50.5-72-50.4
		c-32.5,0-65,1.4-97.4-0.6c-19.4-1.2-27.1,7.8-32.3,23.4c-18.4,54.6-9.1,49.2-68.5,49.4c-18.8,0.1-37.6,0-60.6,0
		c14.3-41.4,27-78.9,40.3-116.1c37.2-104.5,75.2-208.8,111.6-313.6c5.5-15.9,12.6-20.4,28.6-19.6c28.2,1.4,56.6,1.4,84.9,0.1
		c18-0.8,27.5,3.3,34.2,22.7c47.6,136.8,97,273.1,145.7,409.5C1669,1218.8,1669.4,1222.8,1671.4,1231.9z M1378.8,1124.8
		c12-8,18.3-13.2,25.5-16.7c24.4-11.9,48.3-26,74-33.7c19.7-5.9,21.7-14.9,16.2-30.6c-11.1-31.4-22.2-62.7-34.2-93.7
		c-2.3-6.1-8.5-10.7-12.8-16c-4.3,5.4-10.5,10.1-12.7,16.2c-17.2,47.6-33.8,95.5-50.2,143.4
		C1381.8,1101.8,1381.4,1110.5,1378.8,1124.8z"/>
	<path fill="#333199" d="M1987.7,787.9c2.4,9,6.9,18,6.9,27.1c0.8,98.2,0.9,196.5,1.1,294.7c-16.5,58-54.2,94.8-111.6,112.6
		c-87.8,27.2-185.5-30.2-205.3-120.2c-3.1-14,1.5-17.8,13.2-20.3c31.4-6.9,62.6-14.3,96.9-22.2c1.2,13.8,1.7,25.9,3.5,37.9
		c4,26.3,25,43.3,50.4,41.6c24.2-1.6,40.5-20.2,40.8-47.6c0.6-63.2,0.8-126.3,1.2-189.5C1901.9,848.3,1933.7,808.2,1987.7,787.9z"/>
	<path fill="#9BDB8A" d="M279.8,693.1c9-24.4,17.9-48.8,26.9-73.2c2.4,0.7,4.8,1.4,7.2,2.1c-2.9,26.8-7.2,53.2-22.4,77.1
		C287.6,697.1,283.7,695.1,279.8,693.1z"/>
	<path fill="#EEEEF6" d="M1378.8,1124.8c2.5-14.3,3-23.1,5.7-31.1c16.3-47.9,32.9-95.8,50.2-143.4c2.2-6.1,8.4-10.9,12.7-16.2
		c4.4,5.3,10.5,9.9,12.8,16c12,31,23.1,62.4,34.2,93.7c5.5,15.7,3.5,24.7-16.2,30.6c-25.7,7.7-49.6,21.8-74,33.7
		C1397.1,1111.7,1390.9,1116.9,1378.8,1124.8z"/>
</g>
</svg>
