<?xml version="1.0" encoding="utf-8"?>
<!-- Generator: Adobe Illustrator 23.0.6, SVG Export Plug-In . SVG Version: 6.00 Build 0)  -->
<svg version="1.1" baseProfile="tiny" id="Layer_1" xmlns="http://www.w3.org/2000/svg" xmlns:xlink="http://www.w3.org/1999/xlink"
	 x="0px" y="0px" viewBox="0 0 2000 2000" xml:space="preserve">
<g>
	<path fill="#2B2970" d="M1308.7,1212.7c-24.5-8.9-49.1-17.5-73.5-26.7c-48-18.2-94.7-38.8-131.8-76.1
		c-65.4-65.8-80.8-160.1-40.9-244.1c35.3-74.2,86-137.6,137.8-200.4c48.4-58.5,96.9-117,147.4-178c45.9,64.7,92,126.9,135.1,191.1
		c63.7,94.9,117.8,194.3,140.7,308.3c31.9,159.1-14.3,292.9-129,404.4c-108.5,105.4-237.8,171.8-386.3,201
		c-159.1,31.3-306.6-3.2-447.4-77.3c-105.8-55.7-193-131.7-247.3-239.6c-80.1-159.2-73.1-317.9,19.9-469
		c69.4-112.7,144.9-221.8,219.9-330.9C759.5,321.2,867.7,168.3,975,14.8c3-4.3,6.6-8.2,12-14.8c29.5,33,59.3,64.1,86.5,97.3
		c23.2,28.5,22,43.8,0.4,73.6C943,351,811.6,530.7,681.2,711.3c-47.1,65.3-90.2,133.9-106,214.2c-30.3,154.5,25.6,306.2,162.2,406.9
		c99.1,73,210.6,104.7,333.6,95.7c19.4-1.4,39-0.2,58.3-2.2c7-0.7,13.4-7.3,20.1-11.2c-6-3.7-11.5-9-18-10.9
		c-94.3-26.8-188.6-55.1-271.3-109c-43.8-28.5-86-62.8-120.2-102c-60.6-69.4-60-154.5-39.5-238.5c19.2-78.5,53.7-150.3,101.9-216.4
		c120.7-165.6,238.9-333.2,358.1-499.9c1.5-2.1,3.4-3.9,9.1-10.6c31.2,44.3,62.6,86.3,91,130.2c13.4,20.6,0.9,41.3-11.5,58.9
		c-43.4,61.3-87.9,121.8-131,183.3c-43,61.5-85.9,123.1-126.5,186.2c-32.9,51.3-48.7,109.4-54.7,169.7
		c-9.3,94.5,50.3,197.7,135.9,239c62.5,30.2,127.2,47.8,197.2,37.4c13.2-2,26.1-6.3,39.1-9.5
		C1309.2,1219.3,1308.9,1216,1308.7,1212.7z M1335.8,642.4c-24,29.7-44.6,53.7-63.5,79c-36.3,48.8-75.8,95.9-106.2,148.2
		c-39.1,67.1-11.9,139.2,57.7,173.1c48.7,23.7,100.7,27.2,152.8,21.4c127.8-14.3,178.2-117.8,107.3-225.3
		C1439.7,772,1387.5,710.5,1335.8,642.4z"/>
	<path fill="#312F74" d="M1160.4,1893.2c17.5-66.7,35-133.4,52.3-199.8c29.7,0,56.9,0,85.5,0c0,99.7,0,198.4,0,298.9
		c-15.8,0-31.3,0-51.5,0c0-68.7,0-138.6,0-208.4c-3-0.6-5.9-1.3-8.9-1.9c-2.8,7-6.4,13.9-8.2,21.1c-12.9,52.9-26.7,105.7-37.4,159
		c-5.1,25.6-16,36.8-42.1,32.1c-5.9-1.1-12.2-0.2-20.1-0.2c-17.4-71.1-34.6-141.2-51.7-211.3c-3.2,0.3-6.3,0.6-9.5,0.9
		c0,69.5,0,138.9,0,209.2c-21.9,0-38.2,0-55.8,0c0-99.9,0-198.6,0-298.8c28.4,0,56.4,0,87,0c17.6,65.3,35.7,132.1,53.7,198.9
		C1156,1893.1,1158.2,1893.2,1160.4,1893.2z"/>
	<path fill="#323075" d="M1587,1832.7c12.3,9,24.4,15.4,33.1,24.8c17.3,18.9,27.3,41.1,18.4,67.7c-10.3,30.6-25.6,60.5-60.7,62.5
		c-60.3,3.5-121,1-183.2,1c0-95.5,0-194,0-298.6c60,2.8,120.1,1,178.6,9.7c51.5,7.7,68.5,77.9,32.3,116.2
		C1600.2,1821.6,1593.9,1826.5,1587,1832.7z M1450.9,1943c31.4,0,60.4-0.3,89.3,0.1c22.9,0.3,37-9.4,40-32.7
		c3.2-24.8-8.2-44.1-32-46.2c-32-2.7-64.3-0.7-97.3-0.7C1450.9,1890.5,1450.9,1915,1450.9,1943z M1450.7,1812.9
		c31.2,0,60.2,1.7,88.9-0.6c19.4-1.5,31.8-15.3,32.3-35.6c0.4-17.9-9.4-32.6-26.9-33.9c-31-2.4-62.4-0.7-94.2-0.7
		C1450.7,1766.7,1450.7,1787.7,1450.7,1812.9z"/>
	<path fill="#312F74" d="M365.4,1900.2c17.4-2,32.9-3.8,48.5-5.7c27.8,51.6,56,66.1,103.7,48.3c12.1-4.5,25.9-20.7,27.4-32.9
		c1.2-10-12.3-27.1-23.4-32.2c-21.9-10.2-46.8-13.7-70.1-20.9c-52.9-16.4-80.1-48.9-76.7-90.6c3.5-43.3,35.8-73.3,91.6-78.5
		c52.9-5,105.7,11.3,121.2,62c3,9.7,3.9,19.9,6.1,31.5c-19.6,0-36.1,0-52.9,0c-17.6-42.2-43.8-56.9-83.7-42.5
		c-11.4,4.1-26,17.2-26.9,27.3c-0.9,9.4,12.4,25.3,23.1,29.7c30.8,12.6,64,19,95,31.1c58.1,22.8,74,94.5,31.3,139.6
		c-29.2,30.9-68.2,35.4-107.5,33.2C409.5,1996,372.1,1960.7,365.4,1900.2z"/>
	<path fill="#312F74" d="M950.4,1993.7c-18.6,0-37,0-55.9,0c-2.4-4.8-5-9.3-7-14.2c-22-54.2-22-54.4-81.3-54.1
		c-21.1,0.1-46.7-5.5-61.8,4.4c-13.6,8.9-15.6,35.5-22.9,54.2c-1.3,3.3-3.4,6.2-5.3,9.7c-17.5,0-35.2,0-56.6,0
		c7.3-18.9,13.9-36.5,20.7-54c29.9-77.1,60.4-154,89.3-231.5c5.3-14.3,13.4-17.9,25.5-15.4c14.6,3.1,33.8-10.7,43.2,13
		c37,93.4,74.7,186.4,112.1,279.7C951.2,1987.7,950.4,1990.5,950.4,1993.7z M847.8,1875.1c-14.5-37.6-27.6-71.7-40.8-105.9
		c-2.5,0.5-5.1,1-7.6,1.5c-12.6,34-25.2,68-38.7,104.4C790.7,1875.1,816.9,1875.1,847.8,1875.1z"/>
	<path fill="#EDEDF3" d="M847.8,1875.1c-30.9,0-57.1,0-87,0c13.5-36.4,26.1-70.4,38.7-104.4c2.5-0.5,5.1-1,7.6-1.5
		C820.2,1803.4,833.4,1837.5,847.8,1875.1z"/>
</g>
</svg>
