<?xml version="1.0" encoding="utf-8"?>
<!-- Generator: Adobe Illustrator 23.0.6, SVG Export Plug-In . SVG Version: 6.00 Build 0)  -->
<svg version="1.1" baseProfile="tiny" id="Layer_1" xmlns="http://www.w3.org/2000/svg" xmlns:xlink="http://www.w3.org/1999/xlink"
	 x="0px" y="0px" viewBox="0 0 2000 2000" xml:space="preserve">
<g>
	<path fill="#321857" d="M330.8,869c-16.2-194.6,31.4-367.2,180.3-501.4c69-62.2,154.6-97.5,240-131.5
		c208.8-83.1,425.8-138,644.5-186.6c67.9-15.1,136.3-28.4,204.5-42c9.7-1.9,19.9-1.1,29.8-1.6c-0.5,7.3-0.3,14.8-1.5,22
		c-19.5,115.7-38.2,231.5-59.1,346.9c-40.8,225.4-92.1,447.8-183.2,659.4c-50.8,118-134.7,202.7-249.4,257.6
		c-117.8,56.3-241.7,68.6-368.4,40.9c-118.2-25.8-220.6-82.7-297.7-177.2c-36.2-44.4-64.3-95.5-96-143.6
		C360,964.3,345.4,916.7,330.8,869z M1413.8,752.2c9.8-54.5,18.6-103.1,27.3-151.7c5.9-33.1,4-34.5-30-37.3
		c-36.9-3.1-64.9,16.9-93.4,35c-27.5,17.4-54.5,29.8-87.8,15.4c-3.9-1.7-17.5,7.2-18.8,13c-8.2,35.7-13.7,72-21,107.8
		c-9.9,48,0.9,60.7,50.3,53.9c15.1-2.1,30-8.3,44-14.8C1324.4,755,1363.2,732.3,1413.8,752.2z M1405.8,790.8
		c-36.5-13.1-66.5-10.2-95.1,6.4c-14.3,8.3-28.4,17-42.3,25.9c-23.8,15.2-48.7,21.6-75.8,10.3c-16-6.7-21.4,0.9-24,15.5
		c-7.9,44.3-17.3,88.3-23.9,132.8c-1,6.5,8.3,18.8,15.4,21.5c30.6,11.7,59.4,2.5,87.3-11.5c38.7-19.5,77.2-40.6,125.6-19.5
		C1384.3,909,1394.9,850.7,1405.8,790.8z M968,455.5c-10.9,58.1-21.3,110.8-29.8,163.9c-0.7,4.3,10.8,13.2,18.1,15.6
		c34.3,11.4,64.9-1.7,94.6-17.2c32.1-16.7,64.3-31.1,102.2-21.2c4.3,1.1,15.6-7.9,16.8-13.6c9.8-47.5,17.5-95.5,26.9-143.2
		c2.9-14.8-0.3-20.8-15.9-24.6c-34.5-8.6-63.7,3.3-90.9,21.1C1053.3,460.6,1017.4,485.3,968,455.5z M1114.9,868.5
		c-3.5-2.8-9.6-11.1-17.5-13.4c-42.9-12.6-76.7,10.1-109.9,31.8c-27.4,17.9-54.7,29.5-88,15.7c-4.2-1.8-18.3,7.5-19.6,13.4
		c-9.7,43.9-17.5,88.3-25.6,132.5c-2.5,13.5,1.1,21.5,16.7,25.6c31.7,8.4,59.8,0.8,87.6-13.4c35.3-18.1,70.4-36.5,112.7-24.6
		c3.8,1.1,14.2-7.8,15.4-13.3C1096.4,974.2,1104.7,925.3,1114.9,868.5z M736,305.9c-10.1,53.8-17.6,101.7-28.5,148.8
		c-5.7,24.6,5,30.3,25.4,34.1c39.5,7.3,71.2-12.4,103.8-28.2c24.6-11.9,49.2-21.7,76.6-13.4c18.4,5.5,24.2-1.7,27-18.9
		c7.6-46.2,16.4-92.3,25.3-138.3c2.9-15.1-1.8-21.4-17.3-24.2c-37.2-6.6-68.6,5.7-98,26.2C816.9,315.4,782.7,334.7,736,305.9z
		 M1257.2,387c-11,57.5-21.1,107.8-29.4,158.4c-0.9,5.4,7.1,15.7,13.3,18.2c35.9,14.9,68.4,1.1,99.7-15.5
		c29.7-15.8,60.1-30.4,94.3-21.3c20.5,5.4,23.7-4.7,26.4-19.7c8.3-46.1,16.3-92.3,25.5-138.3c3-14.8-2.8-18.7-16-22.1
		c-33.3-8.8-61.8,2-88.9,19C1344.6,389.2,1308.2,417,1257.2,387z M976.1,407.6c38.3,19.6,71.5,11.6,105.5-3.9
		c25.4-11.6,52.2-20.9,79.2-28c14.8-3.9,37,4.9,45.7-3.1c9.9-9.1,9.1-30.5,12-46.7c7.4-41.2,14.2-82.6,21.2-123.2
		c-46.4-20.4-83.2-3.4-118.6,19.9c-30.5,20.1-60.7,39.1-99.5,20.5c-3.4-1.6-15.2,4.7-16,8.7C995,303.8,985.7,355.9,976.1,407.6z
		 M1529.7,132.9c-40.2-15.8-72.2-8.4-102.7,10.3c-11,6.7-21.9,13.5-32.7,20.6c-24.2,16-49.7,23.5-77.8,11.4
		c-13.7-5.9-20.7-1.8-23.4,12.7c-8.1,44.3-16.3,88.6-25.1,132.7c-3.3,16.4,3.3,26.3,18.9,25.5c26-1.5,53.9-0.9,77.3-10.4
		c42.4-17.1,81.5-43.3,132.9-23.1C1508.6,249.7,1519.1,191.5,1529.7,132.9z M924.8,676.2c-10.7,56.5-20.8,107.6-29.2,159.1
		c-0.8,5.1,7.9,15.1,14.3,17.6c28.4,11.3,55.8,4.5,82.4-8c41.2-19.4,80.8-46.2,131.7-23.1c10.9-59,21.4-112.9,30.2-167
		c0.9-5.4-6.8-15.8-12.7-18c-31-11.5-59.9-2.5-86.5,14C1015.4,675.5,977.8,706.9,924.8,676.2z"/>
	<path fill="#321957" d="M1633.3,1480.8c-14.2,68.8-27.5,133.2-40.7,197.7c-10.3,50.4-20.7,100.7-30.6,151.1
		c-6.4,32.7,7.7,60.7,37,75c57.2,28,130.8,3.4,152-56.1c17.4-49,27.2-100.8,38.7-151.8c16.1-71.5,30.6-143.3,45.9-215.3
		c34.6,0,67.7,0,104.1,0c-10.8,51-21.2,100.9-32.1,150.7c-14.1,64.5-27.7,129.1-42.9,193.3c-30.8,130-117.2,185.8-250.3,172.7
		c-31.8-3.1-66.1-12.2-92.7-28.9c-53.3-33.4-73-87.9-61.9-148.6c19.6-107.3,44.2-213.8,65.4-320.8c3.1-15.6,9.1-19.6,23.4-19.2
		C1575.2,1481.3,1601.9,1480.8,1633.3,1480.8z"/>
	<path fill="#321957" d="M496.3,1626.5c-33,0-64,0-97.2,0c0.7,0.6-1.3-0.2-1.8-1.7c-22.5-61.9-81.8-89.1-142.4-61.6
		c-14.4,6.5-30.2,25.2-32,39.9c-1.8,14.4,9.7,35.7,22.1,45.5c20.5,16.2,46.2,25.8,70,37.7c23.7,11.9,47.3,24.1,71.7,34.5
		c103.1,44,91.7,179.4,19.4,235.5c-38.9,30.2-82.5,42.4-130.4,43.4c-43.3,0.9-86-1.2-126.7-19c-61.7-27-94.6-81.9-88-153.6
		c31.4,0,63.1,0,95.9,0c4.9,32.8,9.3,65.5,44.8,77.3c39.2,13,80.7,16.5,117.9-1.9c17.1-8.4,32.5-30.2,38.2-49.1
		c6.6-21.8-10.3-39.7-30.9-49.7c-35.3-17.1-71.1-33.4-106.4-50.4c-39.6-19-76.4-41.3-92.1-85.9c-28.3-80.5,19-166.2,104.9-187.8
		c52.6-13.2,105.6-12.2,157.5,4.8C451.4,1504.5,490.7,1556.5,496.3,1626.5z"/>
	<path fill="#331958" d="M971.9,1990.8c-32.7,0-64.4,0-98.4,0c-5.8-36.2-11.6-72.1-17.8-110.5c-65.4,0-129.7-0.5-193.9,0.7
		c-6.6,0.1-15,9.1-19,16c-15.3,26.1-28.2,53.7-44.2,79.5c-4.6,7.5-16,14.6-24.7,15.1c-28.4,1.9-57,0.7-90,0.7
		c15.2-27.5,28.9-52.5,42.9-77.4c77.2-136.7,154.9-273.2,231.5-410.3c9.7-17.3,20-25.9,40.6-24.3c24.7,1.9,49.8-0.7,74.5,1.2
		c6.7,0.5,17.3,9.9,18.4,16.4C919.1,1661.6,945.3,1825.4,971.9,1990.8z M690.5,1792c54.3,0,103.3,0,153.2,0
		c-10-67-19.6-131.4-29.2-195.8c-2-0.3-4-0.6-6-1C769.9,1659.8,731.1,1724.3,690.5,1792z"/>
	<path fill="#080709" d="M374.7,1012c31.8,48.1,59.8,99.2,96,143.6c77.1,94.5,179.5,151.4,297.7,177.2
		c126.7,27.7,250.7,15.3,368.4-40.9c114.7-54.8,198.7-139.6,249.4-257.6c91.1-211.6,142.4-434,183.2-659.4
		c20.9-115.4,39.6-231.2,59.1-346.9c1.2-7.2,1-14.7,1.5-22c11.8-1.8,23.6-3.6,39.5-6c-4.4,33.4-7,65.7-13.1,97.4
		c-32.4,167.5-61.8,335.7-99.8,501.9c-38.4,167.9-86.1,333.4-163.1,489c-63.9,129.1-167.4,212.1-300.4,259
		c-202.3,71.4-390.2,40.9-558.9-91.8c-77.8-61.2-135.3-139.2-167.1-234.4C369.6,1018.1,372.2,1015,374.7,1012z"/>
	<path fill="#321857" d="M1191.5,1565.7c-52.1,0-99.7,0-150,0c5.3-26.6,9.6-50.8,15.5-74.6c1.1-4.2,9.2-9.5,14.1-9.5
		c128.8-0.5,257.6-0.4,390.1-0.4c-6,29.5-11.4,55.9-17.2,84.5c-49.9,0-98.3,0-148,0c-29.9,142.7-59.3,283.3-88.9,425.1
		c-35,0-68.7,0-104.3,0C1132.3,1849.8,1161.4,1710,1191.5,1565.7z"/>
	<path fill="#201B27" d="M374.7,1012c-2.5,3.1-5,6.2-7.5,9.2C355,970.5,342.9,919.7,330.8,869C345.4,916.7,360,964.3,374.7,1012z"/>
</g>
</svg>
