<?xml version="1.0" encoding="utf-8"?>
<!-- Generator: Adobe Illustrator 23.0.6, SVG Export Plug-In . SVG Version: 6.00 Build 0)  -->
<svg version="1.1" baseProfile="tiny" id="Layer_1" xmlns="http://www.w3.org/2000/svg" xmlns:xlink="http://www.w3.org/1999/xlink"
	 x="0px" y="0px" viewBox="0 0 2000 2000" xml:space="preserve">
<g>
	<path fill="#C70202" d="M745.5,357.9c214,259.7,427,518.2,642.3,779.4c-23.2,16.1-48.6,34.2-74.7,51.1c-3.9,2.5-11.5,0.5-17-1
		c-116-30.8-232.2-61-347.9-93.1c-62.4-17.4-113.8-7-165.2,36.6c-100.8,85.6-206.7,165-310.4,247.1c-6.4,5-12.3,10.6-22.8,19.6
		c-35.3-36.9-70.7-73.9-108.2-113.1c22.6-17.4,45.7-35.6,69.3-53.3c93.3-70.3,186.5-140.7,280.1-210.7c38.6-28.8,49.7-70,44.3-113.4
		c-8.2-65.3-21.9-129.9-35.1-194.5c-18.5-90.1-38.9-179.9-57.7-269.9c-1.2-5.8,2.8-15.8,7.6-19.3
		C681.5,400.7,713.9,379.3,745.5,357.9z"/>
	<path fill="#C70203" d="M1248.1,45.3c-102.5,79.6-202.6,157.3-303.9,235.9c-19.4-18.9-36.8-40.2-58.2-55.7
		c-40-29-81.5-56.2-124.2-81.2c-22.4-13.1-45.1-8-68.1,8.3c-65.6,46.7-133,91-200.1,135.5c-38.5,25.5-56,64.1-55.2,106.2
		c1,50.2,9.8,100.6,19.7,150.1c21.6,108,45.8,215.4,69.3,323c3.7,16.8-0.2,27-15.4,38.2c-86,63.4-170.6,128.5-255.8,193
		c-6.4,4.8-13.2,9.1-25.1,17.1c-15.6-47.2-34-90.7-44.3-136c-60.1-265.7,1.6-501.8,181.4-705.4C487.1,139.8,638.4,55.5,812.6,18.8
		c142.2-30,285.9-24.6,426.2,19.8C1241.1,39.3,1242.9,41.5,1248.1,45.3z"/>
	<path fill="#C70303" d="M893.8,1580.5c-93.6-4-180-33.9-268.3-73.4c46.9-37.5,90.4-72.6,134.2-107.4
		c39.7-31.6,80.3-62.1,119.3-94.6c16.3-13.6,30.8-17,51.8-11.1c110.5,30.8,221.4,60,332.3,89.4c55.5,14.7,106.6,13.9,155.4-25.9
		c48.9-39.9,104.1-72.1,156.2-108.1c41.5-28.6,48.7-51.2,35.4-100.3c-18.4-67.9-58-124-98.5-179.7c-2.6-3.6-5.3-7.2-10.2-13.9
		c100.9-78.8,201.1-157.1,308.5-241c1.1,44.9,4.9,83.2,2.4,121c-11,167.2-68.1,317.4-173.6,447.9
		c-119.2,147.5-273.9,239.3-457.2,283.5c-35.8,8.6-72.9,11.8-109.4,17.4c-4.9-1.7-9.7-4.8-14.6-4.8
		C1002.8,1579.6,948.3,1580.1,893.8,1580.5z"/>
	<path fill="#CF0404" d="M1583.9,1662.3c46.3,11,64.6,44,41,84.3c-15.7,26.9-40.7,48.3-62.5,73.4c29.2,14,42.5,41.1,29.3,77.2
		c-17.3,47.2-48.8,84.6-99.9,89.6c-78.1,7.7-157,7.5-240.6,10.8c16.9-50.5,31.7-95.3,47-139.9c21.8-63.9,44-127.8,66-191.7
		c60.2,0.1,120.3,0.5,180.4,0.2C1557.7,1666.2,1570.8,1663.7,1583.9,1662.3z M1376.1,1926.6c23.6,0,41.4,3.2,57.3-0.8
		c19.1-4.8,40.8-11.8,53.8-25.2c19.3-19.9,9-42.8-18.5-46.6c-18.7-2.6-38-1.7-57-0.9c-4.9,0.2-12.2,5.2-13.9,9.7
		C1390.2,1881.8,1384.4,1901.5,1376.1,1926.6z M1419.6,1796.5c31.2-4,57.5-2.8,79.5-11.9c12.7-5.2,24.7-26.7,25.7-41.7
		c1.4-20.1-20.6-18-35.4-19.4c-8.9-0.9-18.9-2.5-26.8,0.5c-9.3,3.5-20,10-24.5,18.2C1430.6,1756,1427.5,1772.3,1419.6,1796.5z"/>
	<path fill="#C60404" d="M1163.8,548.1c-32.4-39.2-62.2-75.4-93.3-113.1c125.1-99.2,249.1-197.5,377.9-299.7
		c40.4,31.9,83.1,65.7,126,99.7c-126.8,75.8-229.5,174.9-343,259.7C1209,511.4,1187.6,529.2,1163.8,548.1z"/>
	<path fill="#CE0505" d="M1262.4,1748.9c-19.9,1.8-38.6,3.4-57.4,5.1c-18.7,1.7-33.5,1.3-40.5-23.2c-2.6-9.2-25.5-18.8-37.9-17.3
		c-14.9,1.8-34,12-41.1,24.3c-10.5,18,7.6,26.1,23.3,30.8c25.8,7.8,52.3,13.7,77.1,23.7c47.3,19,60.7,54.3,40.3,100.9
		c-29.1,66.5-83.3,98.5-152.7,105.4c-28.4,2.8-58.1,0.7-86.3-4.4c-56.8-10.3-78.3-54.8-54-109.1c28.8,0,58.5,0,89.7,0
		c1.4,21.2,0.3,45.9,27.9,51.3c27,5.3,52.6,0.8,70.9-23c14-18.2,11.6-34.1-9-44.7c-14.2-7.3-30.4-10.6-45.5-16.4
		c-18.5-7-37.7-13-54.9-22.5c-27.7-15.5-36.2-41-26.5-71.7c20.7-65.3,70.7-94,133.9-101.7c29.1-3.5,59.8-2.1,88.8,2.8
		C1258.4,1667.8,1273.8,1694.9,1262.4,1748.9z"/>
	<path fill="#C60404" d="M1756.2,503.5c-130,102.1-254.5,199.9-381.9,299.9c-27.8-33.4-54.5-65.6-81.6-98.2
		c128.6-112.7,270.5-206.2,395.9-328.1C1711.3,419.5,1734.4,462.7,1756.2,503.5z"/>
	<path fill="#CF0405" d="M948.1,1675.4c-9.3,52.8-9.3,52.8-61.4,52.8c-32.7,0-65.5,1.9-97.9-0.6c-24.4-1.9-37.5,5.4-41,29.8
		c-1.1,7.8-4.2,15.3-7.6,27.2c53.3,0,104.3,0,160.3,0c-7.2,22.4-11.5,40.7-19.4,57.2c-2.6,5.5-14.3,9.1-22,9.3
		c-39,0.9-78.1,1.7-117-0.1c-20.1-0.9-30.1,5.8-34.2,25c-3.1,14.7-8.3,28.9-13.4,46.4c60.6,0,117.5,0,179.7,0
		c-8.9,22.4-16.4,41.2-23.9,60c-27.6,1.8-55.1,3.4-82.6,5.6c-14.7,1.2-29.4,3.5-44.1,5.3c-7.3,0-14.6,0-21.9,0
		c-27.2,0-54.4,0-81.6,0c-3.7,0-7.3,0-11,0c-10.8-5.4-21.6-10.9-32.4-16.3c34.6-103.4,69.2-206.8,103.8-310.2
		c79.6-0.1,159.1-0.4,238.7,0.2C928.8,1667,938.4,1672.5,948.1,1675.4z"/>
	<path fill="#CE0405" d="M471.9,1716c-1.6,0.3-3.1,0-4.4-1c-4.5-1.3-9-2.5-13.4-3.8c-5.3,0.1-10.7,0.2-16,0.3
		c-6.2,1.9-12.4,3.8-18.6,5.6c0,0,0.3-0.3,0.3-0.3c-2.9,2.3-5.8,4.5-8.7,6.8c0,0-0.8,0.8-0.8,0.8c-18.6,8-21.2,15.6-10.1,29.4
		c2.7,2.9,5.4,5.9,8.1,8.8c3,1.7,5.9,3.4,8.9,5.1c0,0,1.2,0.4,1.2,0.4c8,2.1,16,4.2,24,6.3c25.5,8.3,52.5,13.8,76.3,25.5
		c36.3,18,44.1,53.8,24.6,95.8c-29.4,63.4-81.7,95.7-148.8,102.7c-31,3.2-63.4,0.2-94.3-4.8c-45.3-7.3-70.5-53.4-55.3-96.9
		c1.8-5.1,9.8-11.2,15.1-11.4c26-1.2,52.1-0.5,69.8-0.5c14.2,20.3,22,43.1,36.9,49.9c20.7,9.5,46.2,5.2,65.5-13.2
		c22.3-21.4,18.7-46-10-57.2c-22.5-8.8-46.6-13.6-69.1-22.5c-54.8-21.6-68.3-65.4-36.9-115.4c41.5-66.2,175.6-97.7,241.9-56.5
		c5.7,3.6,9.7,10,14.5,15.1c2.5,4.8,5.1,9.5,7.6,14.3c1.5,1.2,2.2,2.8,2.1,4.7c-3.7,14.9-7.4,29.7-11.1,44.6
		c-6.1,0.4-12.2,0.8-18.3,1.2c-4.8,1-9.6,2.1-14.4,3.1c-1.8,0-3.6,0.1-5.4,0.1c-15.3-1.8-30.6-3.7-45.9-5.5
		c-0.3-3.6-0.6-7.1-0.9-10.7c-0.9-3.5-1.9-6.9-2.8-10.4c0,0,0.1,0.3,0.1,0.3C479.6,1723.3,475.7,1719.6,471.9,1716z"/>
	<path fill="#AF0101" d="M948.1,1675.4c-9.7-3-19.3-8.5-29-8.5c-79.6-0.7-159.1-0.3-238.7-0.2c5.9-2.5,11.8-7.2,17.7-7.3
		c79.2-0.5,158.4-0.4,237.5-0.3C946.4,1659.1,961.1,1656.9,948.1,1675.4z"/>
	<path fill="#AE0001" d="M1583.9,1662.3c-13.1,1.4-26.2,4-39.3,4c-60.1,0.3-120.3-0.1-180.4-0.2c3.4-2.3,6.9-6.5,10.3-6.5
		C1444.2,1660.2,1514.1,1661.3,1583.9,1662.3z"/>
	<path fill="#AD0000" d="M893.8,1580.5c54.5-0.4,109.1-0.9,163.6-0.9c4.9,0,9.7,3.1,14.6,4.8c-55.5,0.4-111,0.8-166.4,0.9
		C901.6,1585.3,897.7,1582.2,893.8,1580.5z"/>
	<path fill="#C00303" d="M723.5,1993.2c14.7-1.8,29.3-4.1,44.1-5.3c27.5-2.2,55.1-3.8,82.6-5.6c-5.3,4-10.5,11.5-15.9,11.6
		C797.4,1994.5,760.4,1993.6,723.5,1993.2z"/>
	<path fill="#C00303" d="M620,1993.2c27.2,0,54.4,0,81.6,0C674.4,1993.2,647.2,1993.2,620,1993.2z"/>
	<path fill="#C21E22" d="M571,1748.7c3.7-14.9,7.4-29.7,11.1-44.6C586.3,1721,596.6,1739.3,571,1748.7z"/>
	<path fill="#C21E22" d="M400.1,1753.8c-11.1-13.8-8.5-21.4,10.1-29.4C406.9,1734.2,403.5,1744,400.1,1753.8z"/>
	<path fill="#C00303" d="M576.6,1976.9c10.8,5.4,21.6,10.9,32.4,16.3c-12,0-24,0-38.3,0C573.2,1986.3,574.9,1981.6,576.6,1976.9z"/>
	<path fill="#C21E22" d="M487,1747.7c15.3,1.8,30.6,3.7,45.9,5.5C517.6,1751.4,502.3,1749.5,487,1747.7z"/>
	<path fill="#C21E22" d="M442.3,1774.4c-8-2.1-16-4.2-24-6.3C426.3,1770.2,434.3,1772.3,442.3,1774.4z"/>
	<path fill="#C21E22" d="M579.9,1699.4c-2.5-4.8-5.1-9.5-7.6-14.3C574.9,1689.9,577.4,1694.6,579.9,1699.4z"/>
	<path fill="#C21E22" d="M471.9,1716c3.8,3.7,7.7,7.3,11.5,11C479.6,1723.3,475.7,1719.6,471.9,1716z"/>
	<path fill="#C21E22" d="M419.4,1717.2c6.2-1.9,12.4-3.8,18.6-5.6C431.8,1713.4,425.6,1715.3,419.4,1717.2z"/>
	<path fill="#C21E22" d="M411,1723.7c2.9-2.3,5.8-4.5,8.7-6.8C416.9,1719.1,413.9,1721.4,411,1723.7z"/>
	<path fill="#C21E22" d="M483.3,1726.6c0.9,3.5,1.9,6.9,2.8,10.4C485.1,1733.6,484.2,1730.1,483.3,1726.6z"/>
	<path fill="#C21E22" d="M538.2,1753c4.8-1,9.6-2.1,14.4-3.1C547.9,1751,543,1752,538.2,1753z"/>
	<path fill="#C21E22" d="M454,1711.2c4.5,1.3,9,2.5,13.4,3.8C463,1713.7,458.5,1712.5,454,1711.2z"/>
	<path fill="#C21E22" d="M417.2,1767.7c-3-1.7-5.9-3.4-8.9-5.1C411.2,1764.3,414.2,1766,417.2,1767.7z"/>
	<path fill="#FCEEEE" d="M1376.1,1926.6c8.3-25.1,14.2-44.8,21.7-63.8c1.8-4.5,9-9.5,13.9-9.7c19-0.9,38.3-1.7,57,0.9
		c27.6,3.8,37.9,26.8,18.5,46.6c-13,13.4-34.7,20.3-53.8,25.2C1417.5,1929.8,1399.7,1926.6,1376.1,1926.6z"/>
	<path fill="#FBECED" d="M1419.6,1796.5c7.9-24.3,11-40.5,18.6-54.4c4.5-8.2,15.2-14.7,24.5-18.2c7.9-3,17.9-1.3,26.8-0.5
		c14.8,1.4,36.7-0.6,35.4,19.4c-1,14.9-13.1,36.4-25.7,41.7C1477.1,1793.8,1450.8,1792.6,1419.6,1796.5z"/>
</g>
</svg>
