<?xml version="1.0" encoding="utf-8"?>
<!-- Generator: Adobe Illustrator 23.0.6, SVG Export Plug-In . SVG Version: 6.00 Build 0)  -->
<svg version="1.1" baseProfile="tiny" id="Layer_1" xmlns="http://www.w3.org/2000/svg" xmlns:xlink="http://www.w3.org/1999/xlink"
	 x="0px" y="0px" viewBox="0 0 2000 2000" xml:space="preserve">
<path fill-rule="evenodd" fill="#0192D9" d="M748.7,1289.7c-5.9-18.3-12.9-36.3-17.7-55c-2.5-9.7-5.4-19.3-6.7-29.3
	c1.5-3,4.5-2.6,7-3.1c1.8-0.4,3.6-0.1,5.4-0.1c256.3,0,512.7,0,769,0c1.8,0,3.6,0,5.4,0c1.8,0,3.4,0.6,3.3,2.6
	c-0.1,1.9-1.1,3.4-3.5,3.4c-1.2,0-2.4,0-3.6,0c-257.1,0-514.3,0-771.4,0c-1.6,0-3.3,0.6-4,0.1c1.3,0.1,3.5,0,5.7,0
	c256.1,0,512.3,0,768.4,0c3.9,0,8.2,1.1,9.4-4.7c0.5-2.2,4.6-0.5,5-3.5c4.1-17.7,10.2-34.7,15.2-52.1c5.4-18.7,11-37.4,16.5-56.1
	c0.2-5.5,3.1-10.3,3.6-15.8c0.3-3.8-1.1-5.1-4.5-5.6c-2.8-0.4-5.6-0.2-8.4-0.2c-271.7,0-543.5,0-815.2,0c-4.6,0-9.3-0.3-13.9,0.1
	c-0.8,0-1.5-0.4-2-1c-0.4-4.7-1.7-9.5,0.5-14.2c1.9-16.2,3-32.4,5.5-48.5c2.9-18.5,6.5-36.8,11.2-54.9c0.2-1,0.2-2,0.2-3
	c1.5-9.9,4-19.5,7.3-28.9c0.8-2.3,1.5-4.6,3.4-6.2c0.1-0.4,0.2-0.8,0.3-1.1c-0.4-2.8,0.1-5.3,2.4-7.2l0,0c0.9-5.3,1.6-10.6,5.7-14.7
	c0.3-0.3,0.4-0.7,0.3-1.1c4.3-16.9,12.5-32.1,20.2-47.5c5.6-11.3,11.8-22.4,17.9-33.5c2.6-4.8,5.2-9.5,9-13.5
	c0.5-0.7,0.9-1.4,1.4-2.2c2.2-8.5,8-15.2,12.1-22.7c7-13,15-25.6,22.3-38.5c1-1.7,2-3.5,3.9-4.5c0.3-0.3,0.4-0.6,0.4-1
	c0.8-2.3,1.7-4.5,3.7-6.1l0,0c1.2-6.3,5.5-11,8.4-16.3c4.1-7.5,8.5-14.9,12.8-22.3c0.9-1.6,2.4-2.6,3.8-3.8c0.5-1.2,1.1-2.4,1.6-3.6
	c4.2-10.4,10.8-19.5,16.3-29.2c6.7-11.8,13.3-23.8,20.7-35.1c7.6-14.1,16.1-27.8,24-41.8c1.4-2.5,3.1-4.7,5.3-6.5
	c0.3-0.1,0.5-0.4,0.4-0.8c2.2-6.9,6.3-12.8,10-18.9c6.3-11,12.6-22,19-32.9c3.6-4.8,5.2-10.9,9.8-14.9l0,0c0.7-4.3,3.4-7.6,5.5-11.2
	c6.6-11.4,13.4-22.7,20-34.1c0.8-1.4,1.8-2.6,3.3-3.3l0,0c4.1-11.6,12-21.2,17.5-32.1c1-2,2.3-3.8,3.3-5.7c2.7-3.4,3.6-8,7.5-10.4
	c0.2-0.4,0.5-0.9,0.7-1.3c1.1-2.8,1.7-5.8,3.6-8.3c0.2-0.5,0.5-1,0.8-1.5c8.3-14,16.8-28,24.6-42.4c0.4-0.8,0.8-1.4,1.4-2.1
	c2.4-3.2,4.2-6.7,5.7-10.3c0.3-1,0.7-2,1.8-2.5c2.6-0.8,2-3.5,3.2-5.2c0.2-0.5,0.5-1,0.7-1.5c7-10.8,13-22.2,19.7-33.2
	c1.8-2.9,3.3-6,6.1-8.2l0.1-0.1c5-13.2,13.5-24.5,20.2-36.7c4.9-9,10.3-17.7,15.6-26.5c0.3-0.5,0.6-0.9,0.9-1.3
	c1.5-1.9,2.4-4.1,3.4-6.3c0.2-0.5,0.5-1,0.8-1.5c7.7-12.2,14.8-24.7,21.9-37.2c1.2-2.1,2.2-4.3,4.6-5.3c0.3-0.3,0.4-0.6,0.4-1
	c5.7-13.8,14.7-25.8,21.7-38.9c1.1-2.1,2.4-4.2,3.3-6.4c0.7-2.2,2.2-3.5,4.2-4.2l0,0.1c2.9-9.1,9.2-16.3,13.6-24.6
	c3.5-6.7,7.1-13.5,11.4-19.8c0.3-0.5,0.5-1,0.8-1.5c3.7-7.1,8.8-13.4,11.7-21c0.3-0.8,0.8-1.5,1.3-2.2c9-12.9,16.1-27,24.2-40.4
	c1.3-2.1,2.6-4.1,4.5-5.6c0.4,0,0.8,0,1.2,0c2.2,1.2,3.6,3.1,4.8,5.3c12,20.9,24.4,41.5,36.5,62.4c1.1,1.9,1.8,4,2.3,6.1l0,0
	c5.8,6.6,10.1,14,13.1,22.3c-0.1,0.4,0.1,0.6,0.4,0.8c1.9,1.3,3.2,3,4.3,4.9c6.9,12,14,24,21.1,35.9c1.5,2.5,2,5.3,3.3,7.7
	c0,0.4,0.1,0.7,0.4,1c2.2,1.2,3.3,3.4,4.5,5.5c9.6,16.2,18.7,32.6,28.6,48.5c2.2,3.6,4,7.3,5.3,11.3c0.3,0.5,0.6,0.9,0.8,1.4
	c6.3,5.6,8.9,13.6,13.2,20.5c3.2,5,5.9,10.4,9.2,15.4c2.5,3.8,4.6,7.8,5.9,12.3l0,0.1c7.7,8.4,12,18.9,17.8,28.4
	c2.8,4.5,6.6,8.6,7.4,14.2c-0.1,0.4,0,0.7,0.4,0.9c2.2,1,2.2,3.4,3.3,5.1l0,0c3.9,3.6,6.3,8,7.4,13.2c0.3,0.5,0.5,0.9,0.8,1.4
	c5.9,4.9,8.2,12.2,12.2,18.4c5.4,8.4,9.9,17.4,15.3,25.8c1.6,2.4,2,5.2,3.1,7.7c0.2,0.4,0.4,0.9,0.7,1.3c1.3,0.3,2.1,1.2,2.7,2.2
	c8.3,13.7,15.9,27.8,24.2,41.5c0.8,1.4,0.6,3.1,1.5,4.5l0,0c4.3,3.9,6.7,9.1,9.4,14c6.4,11.6,14.5,22.3,19.4,34.7l-0.1,0
	c4.5,4.3,6.9,9.7,8.8,15.5c0.2,0.5,0.5,0.9,0.7,1.4c6.3,6.3,10,14.4,14.1,22.1c4.9,9.4,12.1,17.5,15.3,27.8c-0.1,0.4,0,0.6,0.4,0.8
	c8.4,9.7,13.9,21.1,19.2,32.6l0,0c5,4.3,7.2,10.2,9.5,16c0,0.9-0.1,1.9,1,2.3c6.2,4.9,8.5,12.5,12.4,18.9
	c7.2,11.7,13.9,23.7,20.8,35.6c1.8,3.1,3.4,6.3,4.5,9.7c-0.1,0.5,0.1,0.8,0.5,1c1.4,1.2,2.8,2.2,3.8,3.8c7.6,13,15.1,26.1,22.7,39.1
	c1,1.8,1.2,3.8,2.2,5.6c0,0.4,0.1,0.7,0.4,1c2.4,1.1,3.4,3.3,4.6,5.4c8.3,14.9,17.2,29.4,25.7,44.2c0.9,1.6,1.5,3.3,1.8,5.1
	c3.8,2.7,4.6,7,6.2,10.9c-0.1,0.4,0.1,0.8,0.5,1c3.7,2.1,5.1,6.1,6.8,9.5c3.5,7,9.2,12.9,10.9,20.9c0,1,0,1.9,1.2,2.3
	c4.8,3.7,7.2,8.8,8.6,14.5c0.3,0.4,0.6,0.9,0.9,1.3c4.9,5.6,7.9,12.2,10.1,19.2v0c3.6,4.3,6.1,9,7,14.6c0.1,1.9,1,3.5,2.2,4.9
	c5.8,6.7,7.6,15.3,11.1,23.1c2.7,6.2,5.8,12.3,6.1,19.3c-0.3,2.3,0.9,4.1,2,6c4.4,4.1,4.8,10,6.3,15.2c4.1,14.5,9,28.8,11.7,43.7
	c0.9,4.9,0.7,10,1.9,14.9c0.1,1.1,0.3,2.3,0.4,3.4c1.6,1.6,2.2,3.7,2.7,5.9c3.6,18.1,4.9,36.4,6,54.7c0,0.4-0.3,0.7-0.5,1.1
	c0,0.8,0.1,1.6,0.1,2.5c1.3,4.5-0.4,9.2,1,13.7c0,11.8,0,23.7-0.1,35.5c0,4,0,8,0.1,12c-1.3,4.5,0.3,9.2-0.9,13.7
	c0,0.8-0.1,1.6-0.1,2.5c0.2,5.7,0.1,11.4-1.4,16.9l0-0.1c0.9,14-2.7,27.6-4.6,41.3c-0.4,2.6-0.8,5.2-2.6,7.2
	c-0.3,0.3-0.3,0.6-0.1,0.9c-2.2,22.2-9.3,43.2-15.3,64.4c-0.7,2.6-1.3,5.5-3.8,7.3c-0.2,0.3-0.3,0.6-0.2,1c-0.8,2.1-1.4,4.2-2.3,6.2
	c-0.3,0.2-0.4,0.4-0.2,0.7c-3.6,14.7-8.9,28.7-16.8,41.6l0,0c-2.1,4.7-2.8,9.9-5.4,14.4c-1.1,1.9-2.1,3.9-4,5
	c-1,0.9-1.7,1.9-1.5,3.3c-1.2,5.7-3.5,10.9-8,14.9c-0.3,0.3-0.4,0.6-0.4,1c-4,12-11.7,22-18.3,32.5c-12.9,20.4-27.3,39.8-43,58.2
	c-1.9,2.3-3.9,4.6-6.6,6.2l0,0c-2.4,3.7-4.7,7.5-8.8,9.7c-0.3,0.3-0.6,0.7-1,1c-5.7,8.1-12.7,14.9-20.4,20.9l0,0
	c-1.2,2.9-3.2,4.9-6.2,6c-1.2,0.4-1.9,1.2-2.4,2.3c-1.8,4.4-5.8,6.4-9.5,8.7l0,0c-2,5.5-7.6,7.5-11.5,11
	c-10.6,9.5-21.6,18.5-33.7,26.2c-1,0.7-2.3,0.6-3.2,1.5h0c-8,7.6-16.6,14.1-27.1,17.9c-0.6,0.5-1.3,1.1-1.9,1.6
	c-10,8.2-21.6,13.7-32.9,19.6c-10.8,5.7-21.6,11.4-33,16c-1.8,0.8-3.6,1.9-5.7,1.3c-0.4-0.1-0.8,0.1-1.1,0.4
	c-4.6,3.7-10.2,5.6-15.6,7.7c-19.4,7.4-39.1,14.2-59.2,19.5c-3.7,1-7.4,1.8-11.2,1.7l0.1,0c-1.7,1.9-4.3-0.1-6,1.4h-0.6l-0.6,0.2
	c-1.1,1.4-2.6,1.9-4.2,2.3c-12.7,3.1-25.4,5.6-38.5,5.9l-0.5-0.1l-0.4,0.3c-2.4,1.4-5.3-0.1-7.8,1.1c-1.8,0.2-3.7,0.3-5.5,0.5
	c-6.4,4.3-14,3.2-21,3.7c-10.1,0.9-20.4,0.4-30.5,0.6c-11.5,0.2-23.1,0.8-34.7,1c-14.1,0.2-28-2.5-42-2.9c-2.6-0.1-5.2-0.7-7.3-2.5
	c-4.3-0.5-8.6-1-12.9-1.6c-2.5-0.3-5.1,0.6-7.6-0.1c-10.1-1.5-20-3.7-29.9-5.6c-0.6-0.1-1.2-0.3-1.8-0.4c-1.9-0.8-4.3-0.5-5.8-2.3
	c-1.4,0-2.8,0-4.3-0.1c-14-3.3-27.7-7.5-41.3-11.9c-1.4-0.6-2.9-1-4.4-1.5c-9.7-3.2-19.4-6.7-28.9-10.5c-3-1.2-5.9-2.5-8.3-4.9
	l-0.3-0.3l-0.5,0c-17.1-4.6-32.3-13.5-47.7-21.7c-37.1-19.8-71.3-43.9-102.8-71.8c-4.6-4.1-9.9-7.6-13.2-13.1l0,0
	c-4.5-2-7.6-5.4-9.8-9.7l0,0c-4.3-2.2-7.7-5.3-9.7-9.8l0,0c-6.8-2.9-9.9-9.7-14.7-14.6c-10-10.3-19-21.6-27.6-33.2
	c-2.4-3.2-4.7-6.5-6.3-10.2l0,0c-8.1-8.3-14.6-17.7-19.3-28.3c0.1-0.3,0-0.6-0.4-0.7c-6.7-5.6-9.9-13.7-14-21
	c-8.2-14.5-15.9-29.3-22.5-44.6C756.2,1309.1,751.2,1299.9,748.7,1289.7z"/>
<path fill-rule="evenodd" fill="#2F3091" d="M777.4,125.8c0.4-0.2,0.5-0.6,0.4-1c0.8-2.3,1.5-4.7,2.8-6.9
	c8.4-14.1,16.7-28.2,24.8-42.4c0.2-0.5,0.5-1,0.8-1.5c3.6-5.3,6.1-11.3,10.4-16.1c0.3-0.3,0.4-0.6,0.3-0.9c-0.3-1.6,0.7-2.7,1.5-3.8
	c6.6-10.4,12.4-21.2,18.8-31.8c2.5-4,5-8,6.8-12.4c0.4-0.8,1-1.4,1.8-1.7c0.3,0.1,0.6,0,0.9-0.2c0.7-3,2.1-5.5,4.9-7.1
	c0.4,0,0.8,0,1.2,0c1.3,1.3,2.7,2.4,3.6,4c10.3,18.8,22.1,36.8,32.5,55.7c2.4,4.4,5,8.6,7.6,12.8c2.8,4.6,5.7,9.1,7.2,14.4l0,0.1
	c4.8,4.2,6.9,10.3,10.4,15.4c2.8,5.7,6.5,10.9,9.6,16.4c0.5,0.7,0.9,1.4,1.4,2.1c2.7,4.7,5.3,9.6,8.3,14.2c0.7,1.3,1.4,2.6,2.2,3.8
	c1.5,2.6,3.7,5,1.5,8.3c-2.8,2.8-6.4,2-9.7,2c-49.3,0.1-98.7,0-148,0c-3,0-6-0.1-9,0.2c-1.9,0.4-4.2,1.8-5.7,0.2
	c-1.8-2-0.2-4.3,1-6.1C769.4,137.7,771.3,130.4,777.4,125.8z"/>
<path fill-rule="evenodd" fill="#00B3F1" d="M1097.1,66.7c-0.1,0.5,0.1,0.8,0.4,1.1c1.6,1.2,3,2.5,4,4.4
	c6.9,12.2,14.1,24.3,21.4,36.4c1.5,2.5,2,5.2,3.2,7.7l0,0c7.1,7.3,10.6,16.8,15.8,25.3c1.1,1.8,1.2,3.9-1.6,4.8
	c-52.1,1.5-104.1,0.3-156.2,0.6c-2.6,0-5.2-0.6-7.8-0.8c-2.7-0.2-3.4-1.7-3.2-4c0-2,0.7-3.9,1.7-5.7c7.5-12.3,14.5-24.9,22-37.1
	c0.6-1,1.4-1.9,2.7-2.3c0.2-0.5,0.5-0.9,0.7-1.4c3.6-10.6,10.7-19.2,15.8-29c5.7-10.7,12.2-20.8,18.2-31.3c1.3-2.3,2.6-4.6,4.7-6.2
	l0,0c3.4-9.3,9.7-16.9,14.2-25.6c0.9-1.7,2.5-2.5,3.9-3.5c0.4,0,0.8,0,1.2,0c4.1,4.9,6.4,10.9,10.2,16c0.3,0.5,0.6,1,0.8,1.5
	c6.8,11.6,13.2,23.4,20.4,34.8C1092.7,56.8,1095.5,61.5,1097.1,66.7z"/>
<path fill-rule="evenodd" fill="#2F3091" d="M96.3,1880.3c0.9-0.7,1.9-1.4,2.8-2.2c0.7-0.5,1.4-1,2.1-1.5c3.1-2.8,6.6-4.9,10.7-5.9
	c2.1-1.2,4.2-2.5,6.3-3.7c2.2-1.7,4.4-3.3,7.2-3.5c1.2-0.8,2.4-1.7,3.6-2.5c7-4.7,14-9.4,22.2-11.8c0.4,0.1,0.6,0,0.8-0.4
	c4.1-4.2,8.9-7,14.7-8.1l-0.1,0c5.9-5.1,12.7-8.6,20.1-11.1c0.5-0.4,1.1-0.9,1.6-1.3c4-3.3,8.4-5.6,13.5-6.7
	c0.8-0.6,1.5-1.1,2.3-1.7c10.8-7,22.3-12.4,33.6-18.3c1.3-0.7,2.8-0.2,4-0.9c0.8-0.5,1.5-1,2.3-1.4c5.3-3.6,10.8-6.7,17.1-8.2
	c0.8-0.5,1.5-1,2.3-1.4c11.4-7,23.3-13,36.3-16.8c2-0.9,4-1.8,6-2.6c4.2-4.6,10.1-5.6,15.8-7l0,0c5.9-4.3,12.5-7.1,19.7-8.3
	c1.9-1.9,4.8-1.2,6.9-2.7c6.2-4.8,13.5-6.9,21.1-8.2c2.2-0.9,4.5-1.9,6.7-2.8c7.5-5,16.3-6,24.7-8.2c1.3,0.3,2.2-0.6,3.2-1.3
	c9.1-5,19.2-6.5,29.2-8.5c0.4,0.2,0.7,0.1,1-0.2c5-4,11.1-4.3,17.1-4.6c0.4,0.2,0.7,0.1,1.1-0.2c4-3.1,9.1-2.2,13.6-3.4
	c0.3,0.2,0.6,0.1,0.9-0.2c11.3-5.2,23.6-6.2,35.6-8.4c4.3-0.8,8.6-0.8,13-1.1l-0.1,0.1c2.7-1.8,5.9,0.2,8.6-1.3
	c1.1-0.1,2.3-0.2,3.4-0.3c2.1-2.2,5-2.4,7.7-2.8c16.6-2.4,33.3-4,50.1-4.3c5.7-0.1,11.6-3.1,17.3-0.1c2.8,0,5.7-0.1,8.5-0.1
	c6.4-1.4,12.9-0.3,19.4-0.8c0.6,0,1.2,0,1.9-0.1c10.7,1.1,21.5,0.3,32.3,0.2c2.4,0,4.8-0.6,7,0.7c3.2,0,6.4,0.1,9.7,0.1
	c0.8-0.7,1.6-0.6,2.4,0.1c1.4,0.5,2.8,0.7,4.3,0.1c3.5,1,7.1,0.2,10.6,0.3c21.3,1.1,42.5,1.9,63.6,4.8c2.2,0.3,4.4,0.4,6.1,2.1l0,0
	c16.2,1.6,32.5,2.8,48.6,5.6c4.6,0.8,9.1,1.7,13.2,3.9c1.2,0.2,2.4,0.3,3.6,0.5c1-0.3,1.7,0.1,2.5,0.6c1.2,0.1,2.3,0.2,3.5,0.4
	c2.2,1.7,5.3-1.1,7.3,1.3l-0.1-0.1c6.1,1,12.5,0.6,18.2,3.7c1.8,1.9,4.1,0.7,6.2,1c4-0.9,7.7-0.4,10.9,2.3c2.2,1.1,4.5,1.7,7,1.4
	c10.3,1.1,20.6,2.9,30.7,5.4c2.2,0.5,4.1,1.6,5.9,2.8c0.7,0.1,1.3,0.2,1.9,0.3c16.3,2.4,32.3,5.7,47.7,11.8c0.3,0.3,0.7,0.4,1.1,0.2
	c9.4,0.4,18.2,3.2,26.7,7.1c0.2,0.3,0.5,0.4,0.9,0.2c10.8,1,21,4.7,31.4,7.5c1.5,0.4,3.2,0.8,3.9,2.5c2.9,0.7,5.7,1.4,8.6,2.2
	c1.7-0.2,3.6-0.7,4.7,1.3l0-0.1c6.2,1.4,12.8,1,18.2,5.1c1.3,1.1,2.9,0.7,4.4,0.9c10.8,1.1,21.1,4.3,31.7,6.5c2.3,0.5,4.8,0.9,6.4,3
	c1.7,1.7,3.8,1.3,5.8,1.3c3.5,1.5,8.1-1.1,10.9,2.9c1.5,1.1,3.2,0.7,4.8,0.8c6.9-0.1,13.7,0.5,19.7,4.5c0.7,0.1,1.5,0.2,2.2,0.3
	c7.2,1.2,14.5,1.3,21.6,3.1c2.6,0.7,5.5,0.7,7.6,2.9c0.2,0.3,0.5,0.4,0.8,0.1c5.7,1.5,12.1-0.6,17.4,3.4c0.6,0.1,1.3,0.2,1.9,0.3
	c7.9,1.2,15.8,1.3,23.7,2.8c5.7,1.1,11.4,1.9,16.7,4.2c0.8,0.1,1.5,0.2,2.3,0.2c4.7-0.3,9.4-1,13.5,2.2c1.1,0.1,2.1,0.2,3.2,0.3
	c2.8,1.4,6.1-0.5,8.9,1.2l-0.1,0c4.4,0.6,8.9,0.6,13.3,0.8c2.2,0.1,4.2,0.6,6.1,1.7l-0.1-0.1c13.4,0.3,26.7,1.7,40,2.8
	c5.4,0.5,10.4,2.6,15.8,2.9c3.1,0.1,6.1,0.2,9.2,0.3c3.7,1.3,7.7-0.2,11.4,0.9c0.8,0,1.6,0.1,2.5,0.1c6.5-0.6,12.9,1,19.3,1.1
	c0.4,0,0.8,0,1.3,0c5.2-0.8,10.5-2.1,15.7,0.2c2.6,0.6,5.3,0.9,7.9,0.1c10.4,0.8,20.8,0.8,31.2,0c0.3,0.3,0.6,0.3,0.8-0.1
	c5.2-2.2,10.4-1.5,15.7-0.3c0.4,0,0.8,0,1.2,0c4.3-2.3,9,0.4,13.4-0.8c2-0.1,4-0.2,6-0.3c4.5-1.3,9.3,0.3,13.8-1
	c2.6-0.1,5.3-0.2,7.9-0.3c24.1-5.1,48.7-6.3,73-9.3c1.1-0.1,2.1-0.2,3.2-0.3c5.5-3.9,12.2-3.5,18.4-4.6c5.9-1,11.7-2,17.5-3.4
	c1.4-0.3,2.8-0.2,4.2,0.1c2.8-0.6,5.5-1.1,8.3-1.7c1.4-2.1,3.7-2.1,5.8-2.6c8.7-2,17.1-5.1,26.2-5.5c2.1,0.3,3.8-0.8,5.6-1.4
	c7.4-4.8,16.2-5.3,24.3-8c3.9-1.3,7.9-2.5,12.1-2.7l-0.1,0c8-4.8,16.9-6.8,25.9-8.4c1.3,0.2,2.1-0.7,3.1-1.3
	c9.7-5.4,20.6-7.7,30.9-11.6c5.3-2,10.4-5.2,16.4-5.3c1.2-0.5,2.3-1,3.5-1.5c5.5-3.9,11.7-5.8,18.2-7l0,0
	c8.5-4.8,17.2-9.2,26.9-10.8c1.1-0.5,2.2-1,3.3-1.6c9.1-5.5,18.9-9.1,29.1-11.8l0,0c4.2-3.7,9.3-5.1,14.5-6.1
	c0.8-0.5,1.6-0.9,2.3-1.4c7.1-4.5,15.1-7,23.1-9.3c0.4,0.1,0.7,0,1.1-0.1c0.7,4.2-3.9,5.2-5,8.3c-18.3,19-36.1,38.5-54.8,57.1
	c-52,51.7-107.4,99.3-169.6,138.6c-60.6,38.3-125.4,66.6-195.9,80.9c-30.9,6.3-62,9.7-93.5,10.8c-53.8,1.9-107-3.4-160-12.3
	c-80.1-13.3-158.4-34.4-236.7-55.4c-84.5-22.7-169-45.5-254.5-64.1c-57.6-12.6-115.6-23.4-174.2-30.5c-66.2-8-132.6-10.7-199.1-6
	c-82.5,5.7-163,22.5-242.4,44.8c-7,1.9-14,3.9-20.9,5.8c-0.3-0.3-0.4-0.7-0.4-1C96.1,1880.5,96.2,1880.3,96.3,1880.3z"/>
<path fill-rule="evenodd" fill="#2F3091" d="M662.7,1607.2c-1.6-0.6-3.6,0.4-4.8-1.4c-9-2.2-17.9-4.8-25.4-10.7l-0.4-0.3l-0.5,0
	c-7.8-1.4-14.6-4.9-20.8-9.6h0c-1.7-0.6-3.8-0.5-4.8-2.4h0c-9.5-2.7-17.7-8-26.2-12.7c-10.5-5.8-20.7-12.2-30.7-18.8
	c-2.2-1.4-4.3-2.9-5.7-5.1l0,0c-8.6-3.4-15.6-9-21.9-15.5l0,0c-4.8-2.2-9.2-4.9-12.3-9.3c-1.1-1-2.3-2-3.4-3
	c-7.3-2.1-11.8-8.2-17.3-12.7c-7.4-6.1-14.7-12.6-21.3-19.7c-1.2-1.3-2.6-2.5-3.5-4.1c-1.6-2.7-1.3-4.6,2.3-4.8c1.6-0.1,3.2,0,4.8,0
	c64.1-0.1,128.2,0.2,192.3-0.1c1.6,0,3.2,0,4.8,0.5c8.4,5.7,14.8,13.6,22.3,20.2c33.3,29.5,69.4,55.1,108.6,76.2
	c46.5,24.9,95.7,42.5,147.3,53.4c2.2,0.5,4.4,0.7,6.3,2.1c1.1,0.8,1.8,1.7,0.4,2.9c-7.9,2.3-16,2.8-24.1,3.4
	c-1.6,0.1-3.2-0.3-4.7,0.5l-0.4-0.2l-0.4,0.3c-2.7,1.9-5.9-0.5-8.6,1.1l0-0.1c-2,1.7-4.3,1.9-6.8,2.1c-11.1,1-22.3,2.2-33.5,2
	c-15.3-0.2-30.7,1.1-46,0.2c-2.7-0.1-5.6,0.1-8-1.8c-1,0-2.1-0.1-3.1-0.1c-3.3-1.3-6.9,0.2-10.2-0.9c-1.8-0.1-3.7-0.2-5.5-0.3
	c-5.9,0-12,1.2-17.5-2.1c-1.1-0.1-2.3-0.2-3.4-0.3c-1.9-1.2-4.3,0.1-6.2-1c-0.4,0-0.8,0-1.3-0.1c-12.9-0.8-25.7-2.6-38.3-5.5
	c-2-0.5-3.8-1.3-5.2-2.7c-2.5-1.6-5.7,0.6-8-1.7c-1.5-1.1-3.7,0.4-5.1-1.3l0,0c-8.6-0.8-16.9-2.3-24.4-6.9c-3.3,0.6-5.5-2.1-8.4-2.6
	C675.9,1613.4,668.8,1611.7,662.7,1607.2z"/>
<path fill-rule="evenodd" fill="#00B3F1" d="M953.5,1630.6c-18.1-4.8-36.4-8.4-54.3-13.9c-50.8-15.5-98.5-37.4-142.9-66.6
	c-29.9-19.6-57.7-41.8-83.3-66.7c-1.6-1.5-3-3.2-4.5-4.9c2.4-2.1,5.3-1.7,8.1-1.7c52.8-0.1,105.5,0.2,158.3-0.2
	c3.9,0,6.9,1.3,9.5,4.3c10,11.2,21,21.6,31.9,31.9c5.4,6,12.6,10.2,17.5,16.7l0,0c6.3,3.3,11.4,8.2,17,12.5
	c40.1,30.8,83.1,56.5,129.9,75.9c5.7,2.3,11.9,3.8,16.6,8.1c1.3,1.2,2.7,1.9,4.5,1.7c9,1.4,17.5,4.2,25.5,8.6v-0.1
	c1.2,0.6,3.1,0.2,3,2.3c-0.1,1.7-1.5,2.2-2.9,2.5c-2,0.5-4,0.5-6,0.5c-17,0-34.1,0.4-51.1-0.2c-11.2-0.4-22.4-1.2-33.5-2.5
	c-2.3-0.3-4.3-1-6-2.5c-4.7-1.1-9.6,0-14.2-1.7c-7,0.5-13.8-1.9-20.7-2.2C954.7,1632.4,953.8,1631.7,953.5,1630.6z"/>
<path fill-rule="evenodd" fill="#2F3091" d="M915.8,241c-2,0.2-4,0.4-6,0.4c-64.5,0-128.9,0.1-193.4,0c-1.9,0-4.6,1.3-5.6-1.9
	c0.5-6.2,4.6-10.7,7.8-15.5c0.9-1.3,1.6-2.6,2-4.1c0.2-0.6,0.5-1.1,0.8-1.6c5.7-8.9,10.8-18.2,16.2-27.3c0.8-0.7,1.8-1.1,2.9-1.3
	c2.6-0.5,5.2-0.4,7.9-0.4c63.5-0.1,127,0.1,190.6-0.1c1.4,0,2.8,0,4.2,0.4c4.2,2.3,1.8,5.1,0.3,7.5c-6.8,11.3-13.3,22.8-20.1,34
	c-0.6,1-1.2,1.9-1.9,2.8c-1.1,1.5-1.9,3.1-2.7,4.8C918,239.7,917.5,241.1,915.8,241z"/>
<path fill-rule="evenodd" fill="#2F3091" d="M611.4,425.8c-3.3-1.4-7.1,1.5-10.3-1.1c-1-2.1,0.9-3.2,1.6-4.7
	c7.1-10.1,12.3-21.2,19-31.5c9-16.4,6.4-15.4,26.6-15.4c58.5,0,116.9,0,175.4,0c3.4,0,6.9-0.3,10.2,0.5c3.9,1.5,2.9,4.1,1.6,6.8
	c-2.9,6-6.7,11.4-10,17.1c-4.4,7.4-8.4,15.1-12.9,22.4c-1.7,1.9-2.6,4.7-5.6,5.1c-0.7-0.2-1.4-0.3-2.1-0.4
	c-63.4,0-126.7-0.2-190.1,0.1C613.5,425.1,612.4,425.4,611.4,425.8z"/>
<path fill-rule="evenodd" fill="#2F3091" d="M447.9,687.5c0.2-0.4,0.4-0.9,0.7-1.3c1-3.6,2.5-7.1,4.7-10.2
	c4.5-6.5,7.9-13.7,12.1-20.5c1.3-2.1,2.2-4.8,5.1-5.4c1.6,0,3.1-0.1,4.7-0.1c0.9-0.9,2-1.2,3.2-1.1c1.4,0.3,2.8,0.4,4.2,0.4
	c62.8,0,125.5,0.2,188.3-0.1c0.7-0.1,1.4-0.1,2.2,0c1.9,0.6,2.6,2,2.5,3.9c-6.8,13.4-15,26.1-22.6,39.1c-1.1,1.7-1.9,3.6-2.9,5.4
	c-1.2,1.5-2,3.4-4.1,3.8c-0.7,0-1.4,0-2.2-0.1c-65.1-0.1-130.1-0.2-195.2,0.1c-1.7,0.4-3.3,1.1-5,1.1c-0.6,0-1.2-0.2-1.8-0.6
	C439.6,695.2,444.1,691.5,447.9,687.5z"/>
<path fill-rule="evenodd" fill="#2F3091" d="M321.5,937.8c0.4-1.2,0.8-2.3,1.2-3.5c0-2.7,0.3-5.3,2.3-7.4l0,0c1.8-2,4.2-2,6.7-2
	c63.3,0.3,126.6,0,190,0.1c2.6,0,5.2-0.1,7.8,0.8c3.9,2.4,1.8,5.7,1.1,8.5c-3.2,12.3-7,24.5-9.5,37.1c-0.7,1.9-0.7,4.2-2.6,5.6
	c-1.1,0.3-2.2,0.1-3.3-0.2c-26.2-0.4-52.4-0.1-78.6-0.2c-37.1,0-74.2,0-111.3,0c-0.6,0-1.3,0.1-1.9,0.2c-1.6,0.9-3.2-1-4.8,0
	c-4.2,0.9-7.3,0.6-5.5-5c0.2-9.9,4.1-19,5.6-28.7C319.1,941,320.4,939.5,321.5,937.8z"/>
<path fill-rule="evenodd" fill="#2F3091" d="M515,571.1c0.3-0.3,0.3-0.6,0.2-0.9c2.6-2.1,2.9-5.5,4.7-8.1c1.6-2.4,2.8-5.4,6.5-5.2
	c0.7,0.1,1.4,0.2,2.1,0.3c63.8,0.2,127.6,0.1,191.4,0c2.6-0.3,5.3-0.5,8-0.1c0.9,0.4,1.6,1.1,1.9,2c-0.9,6.2-5.5,10.6-8.3,15.8
	c-5.2,10-11.6,19.3-17,29.2c-0.9,1.7-2,3.5-4.1,4.2c-0.7,0.1-1.4,0.2-2.1,0.2c-63.4,0-126.9,0-190.3,0c-2.8,0-5.6-0.1-8.4,0.1
	c-1.3,0.3-2.7,0.5-4.1,0.5c-3.3-2.5-0.4-4.7,0.7-6.5c2.8-4.8,5.8-9.5,8-14.6c0.4-0.8,0.9-1.5,1.4-2.2
	C509.2,581.3,511.4,575.7,515,571.1z"/>
<path fill-rule="evenodd" fill="#2F3091" d="M592.6,792.9c-1.6,0.2-3.3,0.5-4.9,0.7c-1.8-1.2-3.9-1-5.9-1c-60,0-120-0.1-180,0.1
	c-0.7,0.1-1.4,0.2-2.1,0.4c-3.5-1.5-8.4,1.5-10.8-3.4c0.3-5.4,3.8-9.4,6.2-13.9c6-11.1,13-21.6,18.8-32.8c1.1-1.5,2.7-2.3,4.5-2.3
	c16.3,0.7,32.6,0.3,48.9,0.3c50.3-0.1,100.5,0.3,150.8-0.2c5.2,0.9,4,4,2.3,7.1c-5.8,10.6-12.2,20.9-18.1,31.4
	c-1.3,2.3-2.5,4.6-3.8,6.9c-0.9,1.4-2,2.8-2.8,4.3C594.9,791.6,594.4,793.1,592.6,792.9z"/>
<path fill-rule="evenodd" fill="#2F3091" d="M389.3,1385.7c1.3,0.2,2.5,0.4,3.8,0.6c62.1-0.3,124.3-0.1,186.4,0c5,0,10-1.9,14.9,0.1
	c0.6,0.3,1.2,0.8,1.6,1.3c1.3,1.4,2.1,3.2,3.3,4.6c9,14.2,19.1,27.7,29.8,40.7c0.6,0.7,1.1,1.4,1.3,2.4c0,0.7-0.2,1.3-0.6,1.8
	c-2,1.6-3.9,0.3-5.9-0.1c-24.4-0.4-48.7-0.1-73-0.1c-38.6-0.1-77.3,0-115.9,0c-3.2,0-6.4-0.2-9.6,0.5c-0.4,0.1-0.8,0.1-1.1,0.2
	c-0.4-0.4-0.8-0.7-1.2-1.1c-1.4-0.8-1.3-2.6-2.4-3.6l0,0c-8.7-7.5-15-16.8-20.3-26.9l0.1,0c-4.1-3.2-6.4-7.6-8.5-12.2l0.1,0
	C389.8,1391.5,385.7,1389.9,389.3,1385.7z"/>
<path fill-rule="evenodd" fill="#2F3091" d="M314.3,1212.3c-0.5-2.4-1-4.7-1.4-7.1c-0.6-1.1-1-2.3,0.4-3.2c3-0.1,6-0.2,8.9-0.3
	c1.5,0.8,3.2,0.5,4.8,0.5c61.9,0,123.7,0,185.5,0c1.6,0,3.2-0.1,4.8-0.2c3.2,0.8,3.1,3.7,3.9,6c0.3,1.6,0.6,3.3,1.2,4.8
	c2.7,12.3,6.1,24.4,9.5,36.5c0,2-0.6,3.6-3,3.7c-67.1-0.3-134.2-0.1-201.2-0.1c-1.2,0.1-2.4-0.1-3-1.4c-3.6-7.8-6.8-15.8-6.7-24.6
	l0,0C315.8,1222.3,314.7,1217.4,314.3,1212.3z"/>
<path fill-rule="evenodd" fill="#2F3091" d="M366.8,833.9c1.9,0.2,3.9,0.5,5.8,0.7c16.3-0.4,32.6-0.2,49-0.2
	c48.6,0,97.2-0.1,145.7,0c3.4,2.1,1.3,4.7,0.2,6.7c-6.3,12.1-11.7,24.6-17.2,37.1c-0.7,1.4-1.2,2.9-1.8,4.3
	c-0.7,1.2-1.4,2.4-2.9,2.7c-0.7,0.1-1.5,0-2.2-0.1c-63.9-0.3-127.8,0-191.7-0.1c-3.3,0-6.9,0.9-9.8-1.8c-0.4-0.7-0.5-1.5-0.2-2.3
	c0.6-1.5,1.1-3.1,1.7-4.6c0.3-6.4,4.2-11.6,6.4-17.3c2.6-6.7,6.2-13,9.4-19.5C360.8,836.2,362.9,834,366.8,833.9z"/>
<path fill-rule="evenodd" fill="#2F3091" d="M303.2,1035.8c0.1-1.1,0.1-2.1,0.2-3.2c1.2-2.5-0.2-5.2,0.9-7.7
	c0.2-1.2-1.6-2.6,0.1-3.8c0.3-2.3,1.9-3.2,4-3.4c0.9,0.4,1.9,0.5,2.8,0c1.7,0.8,3.6,0.5,5.4,0.5c61.6,0,123.2,0,184.8,0
	c1.8,0,3.6,0.4,5.3-0.5l-0.1,0.1c2.1-0.3,4.3-0.6,5.5,1.8c-0.5,15.1-2.5,30.1-3.3,45.2c-0.6,1.5-1.4,2.8-2.9,3.5
	c-2.7,1-5.6,0.7-8.4,0.7c-62.1,0-124.3,0-186.4,0c-3,0-6.1,0.5-8.9-1.1c-3.8-6.4-2.5-13.4-1.4-19.9
	C301.6,1044,302.5,1039.9,303.2,1035.8z"/>
<path fill-rule="evenodd" fill="#2F3091" d="M341.4,1293.7l0.3,0c1.5,0.8,3.1,0.5,4.7,0.5c66,0,131.9,0,197.9,0
	c2.5-0.4,3.7,1.3,4.5,3.2c6.6,15.1,13.4,30.1,20.9,44.8c0.3,0.6,0.2,1.2,0.1,1.8c-1.1,1.6-2.5,0.9-3.8,0.6
	c-47.1-0.4-94.3-0.1-141.4-0.1c-19.1,0-38.3-0.4-57.4,0.2c-0.6,0.3-1.1,0.5-1.7,0.8c-0.5-0.2-1-0.5-1.3-0.9c-1.6-2.3-1.4-5.8-4.8-7
	c-2.3-1.2-2.3-3.5-2.7-5.7c0.1-0.4,0-0.6-0.3-0.8c-5.1-5.7-7.7-12.5-9.3-19.8c0.1-0.3,0-0.6-0.3-0.8c-1.8-2.3-3.3-4.7-3.3-7.7
	c-0.5-1.1-1-2.1-1.5-3.2C340.8,1297.7,339,1295.9,341.4,1293.7z"/>
<path fill-rule="evenodd" fill="#2F3091" d="M303.4,1145.6c-0.1-1.9-0.2-3.8-0.3-5.8c-2.6-7.9-3.3-16-2.9-24.3
	c0.3-5.5,1.1-6.7,6.8-6.7c16.9,0,33.8,0,50.7,0c46.1,0,92.1,0,138.2,0c3.4,0,6.9-0.4,10.1,1c2.5,1.5,3.3,4.1,3.3,6.7
	c0.1,14.1,2.2,28,3.1,41.9c-0.1,0.8-0.4,1.4-0.9,2c-1.5,0.6-3,0.5-4.5,0.1c-2.6-0.4-5.2-0.2-7.8-0.2c-61.1,0-122.3,0-183.4,0
	c-2.8,0-5.6,0.1-8.4-0.1c-1-0.2-2-0.6-2.2-1.8c0.4-3.8-0.8-7.6-0.9-11.4C304,1146.6,303.7,1146.1,303.4,1145.6z"/>
<path fill-rule="evenodd" fill="#00B3F1" d="M507.6,1064.8c-0.3-15.5,2.1-30.7,3.2-46.1c1.8-1.4,3.8-1,5.7-0.5
	c56,0.1,111.9,0,167.9,0.1c2.4,0,5.3-1.2,7.1,1.7c-0.4,1.2-0.8,2.4-1.2,3.6c-2.1,1.1-4.4,0.6-6.5,0.6c-54.2,0-108.5,0-162.7,0.1
	c-2.3,0-4.9-0.8-6.9,1.1c1.5-1.5,3.3-1.1,5.1-1.1c55.8,0,111.7,0,167.5,0c1.2,0,2.4-0.2,3.5,0.6c0,4.3,0,8.7,0,13
	c-0.4,8.2-1.4,16.4-1.2,24.7c0.1,3.2,0.6,6.6-4,7.2c-1.9,0.1-3.6-0.1-4.7-1.9c1.1-3.2,0.9-6.6,1-9.8c-0.8,2.4,1.4,5.5-1.6,7.7
	c-2.9,1.1-6,0.7-9,0.7c-47.7,0-95.3,0.1-143-0.1c-4.1,0-10,3.1-12.3-3.8c-0.2,0.1-0.1,0.3-0.1,0.5c-0.7,3.7-3.4,3.3-6.1,3
	C508.8,1065.9,508.1,1065.4,507.6,1064.8z"/>
<path fill-rule="evenodd" fill="#00B3F1" d="M520,1208.9c-1.6-1.8-1.4-4.1-1.4-6.3c0.7-0.6,1.9-0.1,2.5-1c1.2,1,2.6,0.6,3.9,0.6
	c53.1,0.2,106.3,0,159.4,0.1c2.2,0,4.4-0.4,6.6,0.4h0.5c2.1-0.9,4.2-0.2,6.3,0.2c5.2,14.6,7.7,29.9,12,44.8c-1,2.3-3,2.3-5.1,2.5
	c-3.6,0.4-7.2,0.3-10.9,0.3c-49.1,0-98.3,0-147.4,0c-3,0-6-0.2-9,0.3c-1.4,0.5-2.8,0.6-4.3,0.1c-1.1-0.3-1.5-1.4-2.3-2.1
	c-4.4-11.7-7.5-23.8-9.6-36.1C519.9,1211.7,521.8,1209.8,520,1208.9z"/>
<path fill-rule="evenodd" fill="#00B3F1" d="M569.2,1343.3c-9.1-15.5-16.3-31.9-22.7-48.7c1.5-2.6,4.1-2.1,6.5-2.1
	c55.2,0.7,110.4,0.6,165.6,0c5.1,0,8.5,1.8,10.3,6.6c3.4,9,8.3,17.5,10.1,27l0,0.1c3.6,4.5,6.3,9.6,7.7,15.2c-0.2,2.1-2.3,2-3.4,3.2
	c-2.9,1.1-6,0.5-9,0.5c-54,0-108.1,0-162.1,0c3.1-2.9,7-2.3,10.6-2.3c48,0,96.1,0,144.1,0c2.8,0,5.6,0.1,8.4-0.2
	c0.6-0.2,1.1-0.4,1.6-0.8c0.6-1.1,1.9-1.8,2.1-3.3c-1,0.8-1.9,1.5-3,1.5c-44.5,0.4-89.1,0.1-133.6,0.2c-8.3,0-16.5-0.1-24.8,0.1
	c-1.6,0.2-2.6,1.1-2.9,2.7c-0.3,0.5-0.8,0.8-1.4,0.9C572,1343.8,570.5,1344.5,569.2,1343.3z"/>
<path fill-rule="evenodd" fill="#00B3F1" d="M548.9,878.5c5.3-14.7,12.3-28.6,19.6-42.4c1.2-2.4,3.4-1.7,5.3-1.7
	c55.2,0,110.3,0,165.5,0c1.9,0,3.6,0.1,5.2,1.2c1.6,6.5-0.7,11.8-5.4,16.4c-1,1-1.8,2-1.5,3.6c-1.8,9.6-6.6,18.1-10.6,26.9
	c-1.6,1.3-3.4,2.2-5.4,2.6c-0.6,0.1-1.2,0.1-1.8,0c-0.9-0.4-1.6-0.9-2.2-1.6c-0.6-0.3-1.2-0.5-1.9-0.6
	c-53.1-0.1-106.2-0.3-159.3,0.1c-0.7,0.2-1.4,0.3-2.2,0.3C552.1,882.1,547.9,883.3,548.9,878.5z"/>
<path fill-rule="evenodd" fill="#00B3F1" d="M651.8,692.1c7.1-13.3,14.6-26.3,22.9-38.9c1.2-2,2.7-2.8,5.2-2.8
	c55.1,0.1,110.3,0,165.4,0.1c1.6,0,3.2-0.1,4.6,1c2.5,3.3,0.1,6.4-1.3,8.9c-6.4,11.3-12.8,22.6-19.6,33.7c-0.7,1.2-1.8,2.2-3,2.8
	c-1.2,0.3-1.3,1.3-1.2,2.3c-0.4,0.6-0.9,1-1.6,1.3c-2.4,0.7-4.8,0.5-7.2-0.4c-0.7-0.3-1.3-0.7-2-1c-2.8-0.7-5.6-0.4-8.4-0.4
	c-47.6,0-95.2,0-142.7,0c-3,0-6.1,0.2-9.1-0.3c-0.8-0.2-1.4-0.5-2.1-1C650.5,695.7,651,693.9,651.8,692.1z"/>
<path fill-rule="evenodd" fill="#00B3F1" d="M1058.5,300.1c-0.3,0.1-0.4,0.4-0.3,0.7c-2.7,10.1-9.8,17.8-14.6,26.7
	c-1.1,2-3.2,3-5.5,3.2c-54.7,0.3-109.4,0.1-164.1,0.1c-3.3,0-7.1,0.5-8.1-4.2c-0.3-2.1,0.4-4,1.4-5.7c6.4-11.3,12.9-22.6,19.6-33.7
	c1.1-1.9,2.5-3.6,4.7-4.5c3.6-1.8,7.1,0.1,10.7,0c50.4-0.1,100.8-0.1,151.2-0.1c3.8,0,7.6-0.9,11.4-0.5c3,0.5,2.6,2.6,1.7,4.4
	C1064.1,291.1,1062.6,296.4,1058.5,300.1z"/>
<path fill-rule="evenodd" fill="#00B3F1" d="M519.8,971.4c2-14.5,6.9-28.3,10.5-42.3c0.2-0.8,0.3-1.6,0.4-2.3c1.2-2.1,3.3-2,5.3-2
	c55.2,0.6,110.5,0.1,165.7,0.3c1.8,0,3.6,0,5.4,0.3c4.4,0.7,5.6,2.8,2.7,6.5c-4.3,13.3-7.9,26.8-9.9,40.7c-0.1,0.5-0.4,0.9-0.9,1.2
	c-3,3-6.2,3.5-9.4,0.4c-0.7-0.6-1.4-1.3-2.3-1.6c-7.5-0.6-14.9-0.2-22.4-0.2c-43.6,0-87.1,0-130.6,0c-2,0-4-0.3-6,0.4
	c-0.8,0.7-1.2,1.6-1.7,2.4c-0.4,0.6-1,1-1.6,1.2C521.4,976.6,518.2,976.6,519.8,971.4z"/>
<path fill-rule="evenodd" fill="#00B3F1" d="M628.7,1434.2c-11.2-12.9-21.4-26.6-30.3-41.3c0.3-0.2,0.7-0.4,1-0.6
	c54.9-0.2,109.9,0,164.8-0.1c-54.5,0-109.1,0-163.6,0c-0.6,0-1.5,0.1-1.6-0.3c-0.4-1.1-1.7-2.4-2.9-2.6l0,0c-1-3.1,0.9-3.3,3.2-3.3
	c56.4,0.6,112.7-0.2,169.1,0.4c2.4,0,4.3,1.2,5.5,3.2c4.5,7.6,10.4,14.3,13.5,22.7c0.3,0.4,0.6,0.9,0.9,1.3c3.3,2,5.1,5.2,6.4,8.6
	c0.2,2.7,1.9,4.6,3.3,6.8c1.6,2.7,0.9,4.5-2.5,4.7c-6.2,0.9-12.4,0.7-18.7,0.7c-47.7,0-95.4-0.1-143.1,0.1
	C632,1434.9,630.4,1434.2,628.7,1434.2z"/>
<path fill-rule="evenodd" fill="#00B4F1" d="M597.1,786.4c6.3-13.4,14.7-25.7,21.8-38.7c0.9-1.6,3.1-2.9,1.5-5.3
	c1.1-2.1,3.1-1.5,4.8-1.5c55.4,0.4,110.7,0.1,166.1,0.2c1.6,0,3.2-0.1,4.8,0.1c2.7,0.3,3.9,2.5,2.7,4.2c-4.4,6.2-5.2,14.5-11.9,19.2
	c-0.3,0.4-0.6,0.8-0.8,1.2c-3.2,9.8-9.1,18-15.3,26.1c-1.3-0.1-2.4-0.7-3.4-1.6c-0.8-0.7-1.5-1.4-2.5-1.7c-2.8-0.5-5.6-0.3-8.4-0.3
	c-49.5,0-99,0-148.5,0c-3,0-6,0.3-9-0.5C598.2,787.5,597.6,787,597.1,786.4z"/>
<path fill-rule="evenodd" fill="#00B3F1" d="M511.5,1159.2c-2.5-12.5-3.1-25.3-3.8-38c-0.2-3.6-0.6-7.1-0.9-10.7
	c1.5-2,3.7-2.2,6-2.2c37.3,1.2,74.6,0.2,111.9,0.6c1.8,0,3.7,0,5.4,0.5c1.8,0.6,3.6,1.3,2.5,3.8c-0.3,0.2-0.4,0.5-0.2,0.8
	c-1.9,15-7.9,28.9-11.7,43.3c-0.5,1.8-1.3,3.4-3.2,4.1c-0.5,0-1.1,0-1.6,0.1c-0.5-0.1-0.8-0.5-1-0.9c-0.6-1.2-1.7-1.9-2.6-2.8
	c-0.7-0.6-1.3-1.2-2.2-1.5c-30.4-0.4-60.8-0.3-91.2,0c-0.8,0.4-1.3,1.1-1.9,1.8c-0.8,0.9-1.8,1.5-2.9,1.8
	C513,1160.1,512.2,1159.9,511.5,1159.2z"/>
<path fill-rule="evenodd" fill="#0194DA" d="M700.4,1151.8c-2.5-4.7-6.7-7.9-10.3-11.7c-7.5-7.9-15.1-15.7-16.8-27.2
	c-2.6-17.9,11.2-33.6,30.1-34.7c9-0.5,17.6,1.4,26.1,3.7c5,1.4,9.9,2.1,13.8-2.6c1.3-1.6,3.3-1.3,5.1-0.9
	c-2.8,11.1-5.5,22.2-8.3,33.3c-0.4,1.5-0.3,3.6-2.4,3.7c-2.3,0-1.8-2.3-2.1-3.7c-1.3-8.7-4.5-16.3-11.7-21.7
	c-7.2-5.5-15.2-5.7-21.7-0.6c-5.9,4.5-7.5,12.2-4.4,20.3c2.2,5.6,6.3,9.8,10.3,14c4.6,4.8,9.4,9.4,13.9,14.3
	c9.5,10.5,12.4,22.6,6.8,35.7c-5.7,13.4-17.5,18.1-31.1,19.5c-10,1-19.6-1.1-29.3-3c-3.2-0.6-6.4-1.1-9.6-0.5
	c-0.5,0.6-0.9,1.3-1.6,1.7c-2.8,1.5-5.7,4.1-8.8,2c-3.1-2-1.6-5.5-0.9-8.3c1.1-4.6,1-9.6,4.3-13.5H652c0.3-5.6,2.1-11,3-16.5
	c0.7-4.7,3.1-5.5,6.4-2.6c0.1,1.5,0.2,3,0.4,4.5c1.9,3.1,2.9,6.6,4,10.1c3.6,11.2,12.5,17.5,24,17.5c14.1,0,18.8-13.4,15-23.4
	C703.5,1157.9,701.6,1155,700.4,1151.8L700.4,1151.8z"/>
<path fill-rule="evenodd" fill="#0194DA" d="M1455.1,1193.1c-7.9,0.2-15.6-1.7-23.3-3c-5.6-0.9-11.2-1.8-16.2,2.2
	c-1.1,0.9-2.6,1.6-3.9,0.7c-1.6-1.1-0.3-2.6,0-3.9c2.6-11.4,5.2-22.7,8-34c0.4-1.5-0.2-4.2,2.6-3.9c2.4,0.3,2,2.9,2.2,4.4
	c0.8,5.2,2.1,10.2,4.3,15c5,10.9,15,16.6,26.9,15.3c11.4-1.2,18.4-13.7,14-25.1c-3-7.8-9.1-13.2-14.6-19.1
	c-4.4-4.7-9.1-9.1-12.7-14.5c-6.7-10.1-8.9-20.8-3-31.9c5.9-11.1,15.8-16.1,28-17.2c9-0.7,17.6,1.7,26.1,3.9
	c4.8,1.2,9.1,1.6,12.8-2.5c1-1.1,2.3-1.9,3.8-1.2c2.1,1,0.9,2.9,0.5,4.2c-2.3,9.8-4.7,19.5-7.2,29.3c-0.4,1.4-0.3,3.7-2.5,3.6
	c-2.1-0.1-1.8-2.3-2-3.8c-1.7-10.6-5.8-19.7-16.4-24.3c-6.6-2.9-12.7-2.1-17.9,2.9c-5.4,5.2-6.2,11.5-3.8,18.3
	c2.1,5.8,6.1,10.4,10.3,14.7c4.5,4.6,9.1,9.1,13.5,13.8c9.6,10.2,13.3,22.1,8,35.5c-5.6,14-17.5,19.2-31.5,20.5
	C1459.2,1193.3,1457.1,1193.1,1455.1,1193.1z"/>
<path fill-rule="evenodd" fill="#0193DA" d="M860,1135.6c8.9-12.7,18.1-23.5,25.1-35.7c4.6-8,3.7-10.8-4.4-15.7
	c-1-0.6-1.6-1.1-1.4-2.3c0.2-1.3,1.2-1.4,2.3-1.4c9.7,0,19.3,0,29,0c0.9,0,2.1-0.2,2.3,1.3c0.2,1.5-0.7,2.1-2.1,2.3
	c-5.4,1.1-8.6,5-11.6,9.1c-12.1,16.4-24.1,32.8-36.1,49.2c-3.4,4.7-3.9,10.5-5.6,15.8c-1.9,5.9-3.5,12-5,18
	c-1.8,6.8,0.8,10.2,7.9,10.8c1,0.1,2,0.1,3,0.1c1.3,0,2.6,0.2,2.5,1.9c-0.1,1.6-1.6,1.5-2.8,1.5c-6.8,0-13.7,0-20.5,0
	c-10.1,0-20.1,0-30.2,0c-1,0-2.7,0.6-3-1.1c-0.3-2,1.3-2.3,2.7-2.3c9.5,0,14-5.4,16.2-14c2.5-9.5,5.5-18.9,8.2-28.4
	c0.6-2,0.6-4,0.2-6c-3.3-13.9-6.4-27.8-9.8-41.7c-1.4-5.6-3.8-10.6-9.9-12.7c-1.1-0.4-3.2,0.1-3-2.1c0.2-2.4,2.2-1.9,3.7-1.9
	c12.9,0,25.8-0.1,38.7,0.1c3.4,0,9.5-1.6,9.8,1c0.6,4.6-5.3,1.9-8.1,3.5c-4.6,2.6-7.3,6.1-6.4,11.2
	C854.1,1108.9,857,1121.4,860,1135.6z"/>
<path fill-rule="evenodd" fill="#00B3F1" d="M1093.4,239.5c-0.8-1.2-2.6-1.7-2.2-3.7c0.7-4.1-1.7-0.6-2.6-1c-2.2,2-4.9,1.7-7.5,1.7
	c-50.4,0-100.7,0-151.1,0c-3.6,0-8.2,0.9-8.2-5.2c7.1-12.3,14.2-24.6,21.3-37c0.6-1,1-2.2,1.4-3.2c4.6-0.1,9.2-0.3,13.9-0.3
	c53-0.1,106-0.1,159.1-0.2c3,0,5,0,2.7,3.8C1111.3,209.4,1102.4,224.4,1093.4,239.5z"/>
<path fill-rule="evenodd" fill="#00B3F1" d="M991,415.1c-0.7,1-1.9,1.7-1.8,3.2c-1,1.4-2.1,2.8-3.1,4.1c-1.7,0.4-3.4,0.7-5.1,1.1
	c-0.4-0.4-0.7-0.9-0.9-1.4c-0.1-0.5-0.1-1,0.1-1.6c0.2-0.4,0.4-0.8,0.8-1c-1.1-0.2-1.9,0.8-3,0.7c-50.3,0.3-100.6,0.1-150.9,0.2
	c-3.2,0-6.4-0.2-9.6,0.3c-0.7,0.2-1.5,0.3-2.2,0.5c-1-1.1-3,0.1-3.8-1.5c7.4-13,14.9-25.9,22.3-38.9c1.1-1.9,2.4-3.7,2.5-6
	c57.9-0.1,115.7-0.1,173.6-0.2c4.9,0,3.8,2,2.3,4.6C1005,391.1,998,403.1,991,415.1z"/>
<path fill-rule="evenodd" fill="#00B3F1" d="M893.9,580.9c-5.2,8.5-10.4,17-15.5,25.4c-1.3,0.4-2.6,0.8-3.9,1.1
	c-2.1-1.2-4.4-0.6-6.5-0.6c-49.6,0-99.2,0-148.8,0c-2,0-4,0.2-4.9,0c0.5-0.1,2.1,0,3.6,0c50.4,0,100.8,0,151.2,0
	c1.8,0,3.6-0.4,5.3,0.6c-1.8,1.9-4.2,1.1-6.3,1.1c-53.5,0-107,0-160.6,0c-2.1,0-4.5,0.8-6.3-1.2c8.5-14.7,17-29.5,25.5-44.2
	c0.8-1.4,1.5-2.8,2.2-4.2c2.2-0.1,4.4-0.3,6.6-0.3c55.2,0,110.5,0,165.7-0.1c4.6,0,4.8,0.9,2.5,4.5
	C900.4,568.8,897.2,574.9,893.9,580.9z"/>
<path fill-rule="evenodd" fill="#2F3091" d="M679.6,291.6c0.5-0.7,1-1.3,1.4-2c2.8-3,3.6-8.3,9.4-7.5V282c1.7,0.9,3.6,0.5,5.3,0.5
	c61.1,0,122.1,0,183.2,0c1.8,0,3.6,0.4,5.3-0.5l0,0.1c1.8,0.2,3.7,0.4,5.5,0.6c0.3,0.5,0.5,1.1,0.8,1.6c-8.2,13.1-16.1,26.4-23.4,40
	c-1.2,1.5-0.9,3.5-1.8,5c-0.8,1.4-1.9,2.5-3.1,3.5c-0.8,0-1.6,0-2.3,0c-3.5-1.6-7.1-0.1-10.6-0.1c-60.7-0.1-121.3-0.1-182-0.1
	c-3.3,0-6.9,0.6-9.5-2.4c6.3-10.9,12.6-21.9,18.9-32.9C677.8,295.6,679.4,294,679.6,291.6z"/>
<path fill-rule="evenodd" fill="#0193DA" d="M1190.7,1121.8c7.7-5.8,11.5-16,9.1-24.6c-2.7-9.4-9.5-14.2-18.9-15.4
	c-19.7-2.5-39.5-0.6-59.2-1.1c-1.4,0-3.2-0.1-3.3,1.8c-0.2,2.2,1.9,1.6,3.1,1.8c8.9,1.4,10.2,3.2,8.3,12c-0.2,1-0.4,2-0.7,2.9
	c-7,24.4-14.1,48.7-21.1,73.1c-2.4,8.4-5.2,16-16.1,15.2c-1.4-0.1-2.5,0.7-2.4,2.1c0.1,1.9,1.7,1.3,2.8,1.3
	c22.8-0.5,45.6,1.3,68.3-1.3c11.7-1.3,20.8-6.9,27-17.1c7.8-12.8,4.2-27.4-8.7-34.9c-3.8-2.2-7.9-3.7-12.3-5.7
	c4.3-1.4,8.3-2.7,12.4-3.9C1183.3,1126.6,1187.2,1124.4,1190.7,1121.8z M1165.3,1159.1c-3.2,16.9-13.2,25-31.6,25.4
	c-3.8,0.6-5.8-0.3-4.1-5.8c4-12.6,7.5-25.4,11-38.2c1-3.8,2.7-5.1,6.7-4.8C1162,1136.8,1168.1,1144.6,1165.3,1159.1z M1148.4,1129
	c-3,0.1-4.4-0.1-3.2-3.8c3.6-11.7,6.9-23.5,10.2-35.3c0.6-2.2,1.6-3.2,4.2-3.3c9.4-0.4,15.4,5,15.4,14.4
	C1175,1116.2,1163.5,1128.3,1148.4,1129z"/>
<path fill-rule="evenodd" fill="#0194DA" d="M1030.5,1187.3c-8.7-1.7-7.9-8.5-7.6-14.7c1.1-30.2,2.4-60.4,3.6-90.5
	c0.1-1.3,0.9-3-0.9-3.7c-1.6-0.6-3.1-0.3-4.3,1.3c-0.7,1-1.6,1.8-2.4,2.7c-25.6,30.6-51.2,61.2-76.8,91.6
	c-4.6,5.5-9.2,11.3-16.8,13.3c-1.2,0.3-2.1,1.2-1.7,3.4c10.1,0,20.2,0,30.4,0c1,0,2.1-0.1,2-1.6c-0.1-1.5-1.3-1.6-2.5-2
	c-6.9-2.5-7.8-4.8-3.9-11.1c8.2-13,17.3-24.9,35.6-20.6c1,0.2,2,0,3,0c11.2,0,11.2,0,10.9,11.5c0,1,0,2,0,3
	c-0.5,11.9-1.7,13.5-12.8,17.3c-1.3,0.5-2.2,1.1-2,2.5c0.2,1.4,1.6,0.9,2.5,0.9c3.8,0.1,7.7,0,11.5,0c10.1,0,20.1,0,30.2,0
	c1.1,0,2.5,0.5,3.1-1C1032,1188.7,1031.8,1187.5,1030.5,1187.3z M1001.2,1125.3c-0.1,3-0.5,6-0.7,9c-0.7,14-0.7,14-15,14
	c-4,0-8,0-13.6,0c10.1-11.8,19.3-22.6,29.3-34.3C1001.2,1118.5,1001.3,1121.9,1001.2,1125.3z"/>
<path fill-rule="evenodd" fill="#0194DA" d="M1351.8,1187.2c-7.6-1.2-8-6.9-7.8-12.8c0.5-14.9,1.2-29.8,1.8-44.7c0.6,0,1.2,0,1.9,0
	c0-15.9,0-31.8,0-47.7c0-1.3,0.8-3-1-3.6c-1.7-0.6-3.1,0-4.2,1.5c-0.6,0.8-1.3,1.5-1.9,2.3c-25.5,30.4-50.9,60.8-76.5,91.1
	c-4.8,5.6-9.3,11.8-17.1,13.8c-1.3,0.3-2.3,1-2,2.5c0.4,1.6,1.9,1.1,3,1.1c8.9,0,17.7,0,26.6,0c1.1,0,2.6,0.4,2.8-1.3
	c0.2-1.6-1-1.8-2.2-2.2c-7.1-2.5-8.3-5.2-4.1-11.4c4.6-6.6,10-12.6,15.1-18.8c1.2-1.5,2.7-1.5,4.3-1.5c8.9,0,17.7,0.1,26.6-0.1
	c3.3-0.1,4.2,1.2,3.9,4.3c-0.5,4.8-0.7,9.6-1.1,14.4c-0.8,8.9-2.8,11.1-11.7,13.1c-1.5,0.3-3,0.5-2.7,2.4c0.3,1.7,1.9,1.1,3,1.1
	c10.9,0.1,21.8,0,32.6,0c3.2,0,6.4,0,9.7,0c1,0,2.1-0.1,2.4-1.3C1353.5,1188.1,1352.9,1187.4,1351.8,1187.2z M1321.2,1144.9
	c-0.1,2-0.4,3.5-2.9,3.5c-8-0.1-15.9,0-23.8,0c-0.3-2,1-2.6,1.7-3.5c8.6-10,17.2-20,25.8-30.1c0.4,0.2,0.8,0.4,1.1,0.6
	C1322.4,1125.2,1321.8,1135,1321.2,1144.9z"/>
<path fill-rule="evenodd" fill="#2F3091" d="M552.4,510.1c1-2.1,2-4.3,2.9-6.4c6.5-9.8,12.5-20,17.9-30.5c2.5-3.3,4.1-7.9,9.6-7.2
	c0.3,0.3,0.6,0.3,0.9,0c2.4,0.2,4.8,0.5,7.2,0.5c62,0,124.1,0,186.1,0c2.2,0,4.4,0.3,6.6,0.4c1.2,2.3-0.7,3.7-1.6,5.3
	c-7.8,12.5-15.1,25.3-22.5,38.1c-0.5,1-1.1,2-1.6,2.9c-0.8,1.5-2.2,2.4-3.4,3.5c-0.7,0-1.4,0-2.1,0c-19.5-0.4-39.1-0.2-58.6-0.2
	c-43.7-0.1-87.4,0-131.2,0c-2.2,0-4.4,0.1-6.6-0.2C551.7,516,550,514.2,552.4,510.1z"/>
<path fill-rule="evenodd" fill="#00B3F1" d="M758.2,510.4c7.8-14.8,16.4-29.3,25.4-43.4c0.3-0.3,0.6-0.3,1-0.1
	c23.8,0.1,47.6,0.2,71.4,0.2c30,0,60.1,0,90.1,0c4.1,0,8.3,0.2,11.9,2.5c-6.7,13.9-15.2,26.8-22.8,40.2c-0.7,1.2-1.6,2.2-2.4,3.3
	c-2.4,2.7-5.6,3.2-8.9,3.1c-0.6-0.2-1.1-0.5-1.5-0.9c-0.5-0.4-1-0.7-1.6-0.9c-11.7,0.7-23.4,0.3-35.1,0.3c-37.3,0.1-74.6,0-111.8,0
	c-4,0-8.1-0.1-12.1-0.5C759.5,514.1,756.9,513.9,758.2,510.4z"/>
</svg>
