<?xml version="1.0" encoding="utf-8"?>
<!-- Generator: Adobe Illustrator 23.0.6, SVG Export Plug-In . SVG Version: 6.00 Build 0)  -->
<svg version="1.1" baseProfile="tiny" id="Layer_1" xmlns="http://www.w3.org/2000/svg" xmlns:xlink="http://www.w3.org/1999/xlink"
	 x="0px" y="0px" viewBox="0 0 2000 2000" xml:space="preserve">
<g>
	<path fill="#E44228" d="M1623.9,50.6c105.6,14.6,171.4,76.9,206.5,174.4c7.1,19.7,11.4,41.6,11.5,62.5
		c0.8,206.5,2.2,412.9-0.3,619.4c-1.3,101.7-69.4,198.1-180.7,224.5c-38.4,9.1-78.8,8.8-118,15c-50,8-68.5,31-68.5,80.8
		c-0.1,69.1-2.1,138.3,0.4,207.3c5.7,156.3-120.2,259-255.9,259.7c-192.3,0.9-384.6-1.6-576.9,1.1c-80.8,1.1-119.4-86.1-92.3-135.8
		c20.8-38,55.5-51.8,94.7-52.1c189.8-1.1,379.6-0.5,569.4-0.5c47.1,0,69.7-22.5,69.7-69.5c0-93.2-0.3-186.5,0.2-279.7
		c0.2-37.4,5.5-74.1,24.3-107.2c25.9-45.6,65.5-76.6,116.3-84.5c52.8-8.2,107.1-7.9,160.7-9.5c48.1-1.4,72.7-24.9,72.7-73.9
		c0.1-130.7,0-261.4,0-392.1c0-55.8-1.7-111.6,0.4-167.3c2.6-68.8-29.8-83.9-85.8-90.7c-4.9-0.6-10-0.1-15-0.1
		c-367.1,0-734.3-0.1-1101.4,0.3c-18.9,0-38.1,2.8-56.5,7.1c-22.5,5.3-42,35.5-42.2,64.5c-0.6,101.6-0.5,203.1-0.6,304.7
		c-0.1,92.4-0.2,184.8,0.1,277.2c0.2,45.1,25.8,69.9,71.1,70c38.3,0.1,76.6-0.1,114.9,0c89.4,0.2,144.4,53,172.4,127.5
		c18.6,49.5,15.8,100.8,15.8,152c0,31.1,10.9,48.6,33.2,54.1c21.5,5.3,41.5-5.6,56.4-31.2c68.3-117.5,136.5-235,204.5-352.6
		c24.7-42.7,5.7-76.8-43.3-77.2c-75.8-0.5-151.5-0.1-227.3-0.2c-9.1,0-18.4-0.3-27.2-2.1c-18.8-4-38.7-8.4-44-30.9
		c-5.2-22,3.3-40,19.3-55.8c49.6-49.1,98.8-98.7,147.9-148.4c85.9-87,171.6-174.2,257.5-261.3c5.1-5.2,10.7-9.8,22.2-12.1
		c-3.5,10.6-6.1,21.6-10.6,31.7c-32.3,72.4-65,144.5-97.6,216.8c-20.9,46.2,0.3,80.1,50.9,80.3c69.9,0.3,139.9-0.2,209.8,0.2
		c52.7,0.3,80.1,47,53.7,92.5c-122.1,210.8-244.5,421.5-367,632.1c-31.4,54-76.6,94.8-137.3,107c-111.2,22.4-230.5-21.5-273.9-144.7
		c-10.8-30.6-15.7-64.5-16.4-97.1c-1.4-58.8-36-100.7-97.9-95.5c-58.1,4.9-112.2-7.3-160.9-39.8c-75.7-50.4-110.9-123.1-111.3-212.4
		c-0.9-194.8-0.6-389.6-0.2-584.4c0.2-106.1,46-184.5,143.8-229.2c25.5-11.7,52.8-19.3,79.3-28.8c1.7,0,3.3,0,5,0
		c3.9,2.9,7.8,8.3,11.6,8.2c13.1,0,26.3-3,39.4-3c357.1-0.2,714.2-0.3,1071.3,0c29.8,0,59.5,3,89.3,4
		C1615.4,56.2,1619.7,52.5,1623.9,50.6z"/>
	<path fill="#E96852" d="M1623.9,50.6c-4.2,1.9-8.5,5.6-12.7,5.5c-29.8-0.9-59.5-3.9-89.3-4c-357.1-0.3-714.2-0.2-1071.3,0
		c-13.1,0-26.3,3-39.4,3c-3.9,0-7.7-5.3-11.6-8.2c407.9,0,815.9,0,1223.8,0C1624.3,48,1624.5,49.2,1623.9,50.6z"/>
	<path fill="#E44328" d="M1006.5,1926.4c-63.2,0-126.4-2-189.5,0.6c-48.3,2-88.8-40.8-86.2-93.1c2.8-56.6,34.3-93.1,87.3-93.2
		c126.3-0.2,252.7,0.5,379-0.4c44.3-0.3,90.9,38.4,86.2,86c-1.7,16.9-1.7,34.8-7.7,50.3c-13.1,34.3-39.7,50.4-77.2,50
		C1134.5,1925.9,1070.5,1926.4,1006.5,1926.4z"/>
</g>
</svg>
