<?xml version="1.0" encoding="utf-8"?>
<!-- Generator: Adobe Illustrator 23.0.6, SVG Export Plug-In . SVG Version: 6.00 Build 0)  -->
<svg version="1.1" baseProfile="tiny" id="Layer_1" xmlns="http://www.w3.org/2000/svg" xmlns:xlink="http://www.w3.org/1999/xlink"
	 x="0px" y="0px" viewBox="0 0 2000 2000" xml:space="preserve">
<g>
	<path fill="#FE7001" d="M810,70c28.5,10.1,57.3,19.5,85.5,30.3c99.8,38.3,139,140.1,131.3,229.6c-6.4,75-33.7,143.2-67,209.8
		c-39.3,78.6-80.3,156.7-113.3,238c-31.8,78.4-44.2,161.6-31.5,247.1c16.6,111.4,116.7,195.3,230,195.9
		c150.2,0.7,256.2-137.8,236.8-283.2c-9.9-74.1-41.8-139.5-65.6-208.3c-24.7-71.5-40.6-144.3-17.8-219.8
		c30.2-100.1,119.9-148.3,218.1-138.2c141.1,14.5,206.5,108.8,242.9,230.9c32.4,108.6,38.4,220.1,26.4,333.2
		c-16.5,155.4-56,303.5-129.8,441.6c-34.4,64.5-78.2,121.5-141.8,160.6c-74.6,45.9-218.6,38-277-39.2c-20.9-27.6-49.9-17.6-75.7-9.6
		c-41.1,12.8-80.5,31.6-122.1,42.4c-171.2,44.6-326.3,13.4-454.2-112c-88-86.3-137.6-196.2-168.7-315
		c-32.5-124.4-45-250.8-34.1-378.4c14.5-169.1,64.2-327.8,160.5-468.9c61-89.4,143.9-151.3,250.8-177.9c5.9-1.5,10.9-6,16.4-9.1
		C743.3,70,776.7,70,810,70z"/>
	<path fill="#FE7608" d="M584.4,1713.6c30.4-19.6,62.2-18.5,91.1,11.5c23.4-19.4,48.2-30.8,78.4-20.6c24.6,8.3,40.3,27.2,41.1,53.5
		c1,34.1,1.4,68.4-0.3,102.4c-0.4,8.2-10.3,15.9-15.9,23.8c-6.1-7.7-17-15.1-17.6-23.2c-2.2-29-0.7-58.3-0.9-87.4
		c-0.2-25.4-12.2-40.3-32.9-41.5c-23.1-1.3-40.1,13.7-41.4,39.7c-1.4,28.3,0.8,56.7-1.2,84.9c-0.7,9.5-9.5,18.4-14.6,27.6
		c-6.6-8.9-18-17.4-18.8-26.8c-2.5-28.1-0.6-56.6-1-84.9c-0.4-25.5-12.5-39.5-33.9-40.4c-22.1-0.9-39,13.6-40.3,38.1
		c-1.5,28.2-0.7,56.6-0.4,85c0.1,13.1-0.4,28.5-16.3,27.5c-6.7-0.4-17.1-17.1-17.6-26.7c-1.9-41.6-1.5-83.3-0.2-124.9
		c0.3-9.3,5.6-21.3,12.7-26.5C558.5,1701.6,570.7,1709.2,584.4,1713.6z"/>
	<path fill="#FE7405" d="M1050,1870.7c-11.6,5.2-19.9,9-28.1,12.7c-4.1-9.2-11.7-18.3-11.9-27.5c-1-66.6-1.1-133.2,0.1-199.8
		c0.2-8.8,8.3-23.7,15-25.1c17-3.5,18.9,12.1,19.3,24.8c0.6,19.1,0.2,38.2,0.2,59.7c12.7-5.2,23.4-11.1,34.8-14
		c30.9-7.8,64.1,11.7,69.8,44.1c4.4,25,6.4,51.6,2.8,76.5C1143.3,1883.1,1100.4,1901.6,1050,1870.7z M1043.7,1791.7
		c0.6,0,1.2,0.1,1.8,0.1c0,10-1.2,20.1,0.3,29.9c2.7,18.7,14.5,30.4,33.3,31.3c17.9,0.9,34.5-5.9,36.1-26.2
		c1.9-23.6,3.5-48.2-1.6-70.8c-2.2-9.9-21.5-22.3-32.8-22.1c-11.3,0.3-25.1,13-32.5,23.8C1042.5,1766.2,1044.9,1780.2,1043.7,1791.7
		z"/>
	<path fill="#FE7608" d="M1377.5,1802c-2.9,45.1,36.2,63.9,73.1,46.2c3.7-1.8,7-6,10.6-6.2c7.2-0.4,14.5,1.1,21.8,1.9
		c-1.9,7.3-1.4,17-6,21.3c-23.5,21.9-51.8,23.8-81.4,15.4c-28.4-8.1-45.8-27.7-49.9-56.2c-2.9-20.3-2.8-41.6-0.1-61.9
		c5.3-39.6,43.4-67.3,80.5-61.1c42.5,7,72.3,42.8,65.8,82.3c-1.1,6.9-13.1,15.4-21.3,17c-15.3,2.9-31.5,1.3-47.3,1.4
		C1408.5,1802.1,1393.8,1802,1377.5,1802z M1458.5,1777.9c-5.7-36.3-19-49.9-44.6-47.9c-23.4,1.8-35.6,17.8-35.4,47.9
		C1404.6,1777.9,1430.8,1777.9,1458.5,1777.9z"/>
	<path fill="#FE7507" d="M974.7,1793.9c0.5,58.7-26.4,91.5-73.9,90.8c-38.7-0.6-68-27-71-65.6c-1.4-18.1-1.5-36.5,0.1-54.6
		c3.4-36.9,32.8-63,70.1-64.1c38.5-1.1,69.4,26,74.4,66.1C975.6,1775.5,974.7,1784.8,974.7,1793.9z M942,1794.4
		c-0.7-0.1-1.4-0.2-2.2-0.3c0-8.3,0.6-16.6-0.1-24.9c-1.9-22.2-14.9-36-36.4-36.9c-21.2-0.9-37.2,10.2-38.5,33.4
		c-1.1,20.4-3.7,42.3,2.3,61c3.6,11.5,21.6,24.2,34.1,25.3c10.9,1,26.2-11.3,33.9-21.9C941.6,1821.3,940,1806.6,942,1794.4z"/>
	<path fill="#FE7002" d="M1296.3,1740.8c0,27.5,0.3,54.9-0.1,82.4c-0.3,17.2,4.8,28.6,24,31.5c5.5,0.8,9.9,8.5,14.8,13.1
		c-5.9,4.5-11.3,12-17.7,13c-30.8,4.7-52.6-12.9-53.1-44.1c-1-61.6-0.9-123.1,0.4-184.7c0.2-7.4,10.5-14.7,16.1-22
		c5.1,7,14.1,13.8,14.5,21c1.7,29.9,0.7,59.9,0.7,89.8C1296.1,1740.8,1296.2,1740.8,1296.3,1740.8z"/>
	<path fill="#FE7002" d="M1221.2,1795c0,22.4,1.3,44.9-0.7,67.1c-0.7,7.7-9.8,14.7-15.1,22c-5.7-7-16.1-13.8-16.3-21
		c-1.3-47.2-1-94.4,0.4-141.6c0.2-6.5,9.6-12.6,14.7-19c5.5,6.8,15.3,13.2,15.9,20.4c2,23.9,0.8,48,0.8,72
		C1221,1795,1221.1,1795,1221.2,1795z"/>
	<path fill="#FE7B0F" d="M1205.2,1614.4c9.5,13.7,19.6,21.9,18.8,28.9c-0.8,7.7-11.6,14.2-18.1,21.3c-7.1-7.3-18.1-13.6-20.1-22.1
		C1184.5,1636.6,1195.4,1627.9,1205.2,1614.4z"/>
	<path fill="#FEF7F1" d="M1458.5,1777.9c-27.8,0-53.9,0-80.1,0c-0.1-30.2,12.1-46.2,35.4-47.9
		C1439.5,1728.1,1452.8,1741.6,1458.5,1777.9z"/>
</g>
</svg>
