<?xml version="1.0" encoding="utf-8"?>
<!-- Generator: Adobe Illustrator 23.0.6, SVG Export Plug-In . SVG Version: 6.00 Build 0)  -->
<svg version="1.1" baseProfile="tiny" id="Layer_1" xmlns="http://www.w3.org/2000/svg" xmlns:xlink="http://www.w3.org/1999/xlink"
	 x="0px" y="0px" viewBox="0 0 2000 2000" xml:space="preserve">
<g>
	<path fill="#FE5C04" d="M694.8,710c0-31.6-0.3-63.1,0.1-94.7c0.4-36.7,18-57.5,49.7-59.5c39.4-2.5,60.3,12.4,62.9,52.9
		c3.5,54,1.3,108.4,3.5,162.5c1,24,4.3,48.5,11,71.4c16.8,57.2,57,88.4,115.9,94.9c57,6.2,112.1-21.7,136.6-72.8
		c11.6-24.2,20.1-51.7,22.2-78.3c4.5-58.8,3.5-118,5.6-177c1.3-36,15.8-52,46-53.4c38-1.8,56.9,10.3,59.6,47.3
		c3.3,45-0.7,90.5,1,135.7c2.3,58.8,5.1,117.6,11.6,176c3.4,31.1,21.2,56.2,55.2,63.3c33.9,7.1,64-3.3,84.7-29.6
		c17.7-22.5,34.1-48,43.4-74.9c64.2-185.9,50-363.3-76.8-519c-176.1-216.3-566.7-265.5-767.3,61.7c-186.5,304.3,7.2,650,308.7,714.4
		c49.6,10.6,102.8,4.6,154.3,5.8c19.3,0.5,38.7-1.3,58-0.3c7.6,0.4,18.5,3.1,21.7,8.5c9.1,15.1,19.3,31.7,20.9,48.4
		c1.9,19.9-18.4,24.1-34,28.1c-145.3,36.8-282.4,15.1-409.8-62.4c-153.3-93.2-244.1-230.4-274.6-406.4
		C352.1,448.6,561.3,156.2,862.8,98.1c306.4-59,600.2,153.8,653.7,452.1c23.8,132.6,16,260.5-39.6,384
		c-21.9,48.7-50.2,92.7-99.2,118.6c-71.4,37.8-134.7,16.1-193.1-29.6c-52.9-41.4-52.4-42.1-110.3-10c-148.4,82.3-341-6-373-173
		c-8.1-42.4-6.5-86.7-9.4-130.2C692.9,710.1,693.8,710.1,694.8,710z"/>
	<path fill="#FE5D05" d="M1145.1,1787.3c0,24.3,0.6,48.6-0.2,72.8c-1,28.6-22.2,50.8-47.9,51.6c-25.3,0.8-50-23.3-50.6-51.7
		c-0.9-41.2-0.1-82.5-0.4-123.7c-0.4-49.2-34.5-86.4-79.1-86.7c-45.5-0.3-78,35.2-78.2,86c-0.2,38.8,0.2,77.6-0.1,116.5
		c-0.3,32.2-25.2,60.1-52,59.1c-27.5-1.1-49.4-26.4-49-58.8c0.7-53.3-2-107.1,5.1-159.6c11.2-83.6,92.6-145,179-141.7
		c89.3,3.4,163,68.6,171.5,154c2.7,27.2,0.4,54.9,0.4,82.4C1144,1787.3,1144.5,1787.3,1145.1,1787.3z"/>
	<path fill="#FE5D06" d="M682.8,1671.3c0,22.6,1.3,45.4-0.2,67.9c-5.8,83.6-70.8,154.7-148.9,163.8
		c-92.7,10.8-169.8-35.1-198.1-119.4c-5.6-16.6-8.6-34.6-9.1-52.1c-1.3-42.8-0.9-85.7-0.3-128.6c0.4-32.8,18.2-51.6,47.7-52.1
		c30.3-0.5,51.4,19.4,52.1,51.3c0.9,39.6,0,79.3,0.3,118.9c0.3,48.3,33.5,84.5,77.4,85c44.9,0.5,80.2-36.5,80.6-85.2
		c0.3-38.8-0.3-77.6,0.2-116.5c0.4-34.1,18.4-53.6,48.9-53.7c30.4-0.2,49.3,19.5,50,52.7c0.5,22.6,0.1,45.3,0.1,67.9
		C683.2,1671.3,683,1671.3,682.8,1671.3z"/>
	<path fill="#0550A9" d="M1434.5,1643.4c-31.8-3.9-74.4,6.8-73.9-37.6c0.5-42.7,42.4-31.2,72.5-35.9c0.9-17.5,1.2-34.9,2.7-52.3
		c6.3-72.7,33.9-99.7,107.1-104c13.4-0.8,27.3,1,40.4,3.9c19.3,4.1,25.7,17.7,22.3,36.6c-3.3,18.2-13.7,28.7-32.4,30.1
		c-6.4,0.5-13,0.4-19.4,0c-15.5-1-22.2,6-21.9,21.5c0.5,20.9,0.1,41.8,0.1,63.1c20.2,2.5,38.5,4.2,56.5,7.2
		c16.4,2.8,24.9,13,25.2,30.2c0.3,18-6.8,29.8-25.2,32.3c-17.4,2.4-35,3.5-55.4,5.4c-0.4,8.4-1.1,16.9-1.1,25.4
		c-0.1,58.2,0.2,116.5-0.3,174.7c-0.1,11.9-1.6,24.4-5.5,35.5c-7.4,21.2-25.3,33.4-46.4,31.2c-21.4-2.2-40.2-15.3-42.5-39.6
		c-2.6-28.1-2.6-56.5-2.9-84.7C1434.2,1739.7,1434.5,1692.9,1434.5,1643.4z"/>
	<path fill="#0450A9" d="M1744.1,1727.2c0,42,0.2,84-0.1,126.1c-0.2,19.1-4.5,36.9-22.1,48.4c-28.6,18.8-62.8,5.9-71.6-27.5
		c-2-7.7-2.8-16-2.9-24c-0.2-80.8-0.5-161.6,0-242.4c0.3-37.6,15.5-55.8,45-57.1c31.6-1.4,51,17.9,51.4,52.9
		C1744.5,1644.7,1744.1,1685.9,1744.1,1727.2z"/>
	<path fill="#FE5D06" d="M1312.1,1728.9c0,39.6,0.5,79.1-0.2,118.7c-0.4,22.1-3.6,43.3-26.4,55.7c-25.5,13.9-56.8,3.5-66.1-24.1
		c-3.5-10.5-5-22.1-5.1-33.3c-0.4-78.3-0.5-156.6-0.1-234.9c0.2-40.1,16.1-59.7,47.1-60.2c31.3-0.5,49.8,18.5,50.6,54.6
		C1312.8,1646.5,1312.1,1687.7,1312.1,1728.9z"/>
	<path fill="#0652AA" d="M1217,403c-1,40.4-26.8,66.6-64.9,66c-37.4-0.6-63.5-28.9-62.8-68.1c0.7-40.3,26-63.9,66.9-62.4
		C1197.8,340,1218,361.5,1217,403z"/>
	<path fill="#0652AA" d="M816.5,404.4c-0.5,40.2-24,63.8-63.3,63.8c-40.2,0-63.9-25.8-63.4-69c0.5-35.8,23.9-60.1,58.4-60.4
		C792.8,338.3,817,361.6,816.5,404.4z"/>
</g>
</svg>
